<!-- Generated by IcoMoon.io -->
<svg version="1.1" xmlns="http://www.w3.org/2000/svg" width="54" height="50" viewBox="0 0 54 50">
<title>cogs</title>
<path d="M25 25c0-3.934-3.209-7.143-7.143-7.143s-7.143 3.209-7.143 7.143 3.209 7.143 7.143 7.143 7.143-3.209 7.143-7.143zM46.429 39.286c0-1.953-1.618-3.571-3.571-3.571s-3.571 1.618-3.571 3.571c0 1.981 1.618 3.571 3.571 3.571 1.981 0 3.571-1.618 3.571-3.571zM46.429 10.714c0-1.953-1.618-3.571-3.571-3.571s-3.571 1.618-3.571 3.571c0 1.981 1.618 3.571 3.571 3.571 1.981 0 3.571-1.618 3.571-3.571zM35.714 22.461v5.162c0 0.363-0.279 0.781-0.642 0.837l-4.325 0.67c-0.223 0.725-0.53 1.423-0.893 2.121 0.781 1.116 1.618 2.148 2.511 3.209 0.112 0.167 0.195 0.335 0.195 0.558 0 0.195-0.056 0.391-0.195 0.53-0.558 0.753-3.683 4.157-4.492 4.157-0.223 0-0.419-0.084-0.586-0.195l-3.209-2.511c-0.698 0.363-1.395 0.642-2.148 0.865-0.14 1.423-0.279 2.958-0.642 4.325-0.112 0.391-0.446 0.67-0.837 0.67h-5.19c-0.391 0-0.781-0.307-0.837-0.698l-0.642-4.269c-0.725-0.223-1.423-0.53-2.093-0.865l-3.292 2.483c-0.14 0.14-0.363 0.195-0.558 0.195-0.223 0-0.419-0.084-0.586-0.223-0.725-0.67-4.018-3.655-4.018-4.464 0-0.195 0.084-0.363 0.195-0.53 0.809-1.060 1.646-2.093 2.455-3.181-0.391-0.753-0.725-1.507-0.977-2.288l-4.241-0.67c-0.391-0.056-0.67-0.419-0.67-0.809v-5.162c0-0.363 0.279-0.781 0.642-0.837l4.325-0.67c0.223-0.725 0.53-1.423 0.893-2.121-0.781-1.116-1.618-2.148-2.511-3.209-0.112-0.167-0.195-0.363-0.195-0.558s0.056-0.391 0.195-0.558c0.558-0.753 3.683-4.129 4.492-4.129 0.223 0 0.419 0.084 0.586 0.195l3.209 2.511c0.698-0.363 1.395-0.642 2.148-0.893 0.14-1.395 0.279-2.93 0.642-4.297 0.112-0.391 0.446-0.67 0.837-0.67h5.19c0.391 0 0.781 0.307 0.837 0.698l0.642 4.269c0.725 0.223 1.423 0.53 2.093 0.865l3.292-2.483c0.167-0.14 0.363-0.195 0.558-0.195 0.223 0 0.419 0.084 0.586 0.223 0.725 0.67 4.018 3.683 4.018 4.464 0 0.195-0.084 0.363-0.195 0.53-0.809 1.088-1.646 2.093-2.427 3.181 0.363 0.753 0.698 1.507 0.949 2.288l4.241 0.642c0.391 0.084 0.67 0.446 0.67 0.837zM53.571 37.333v3.906c0 0.419-3.599 0.809-4.157 0.865-0.223 0.53-0.502 1.004-0.837 1.451 0.251 0.558 1.423 3.348 1.423 3.85 0 0.084-0.028 0.14-0.112 0.195-0.335 0.195-3.32 1.981-3.46 1.981-0.363 0-2.455-2.79-2.734-3.209-0.279 0.028-0.558 0.056-0.837 0.056s-0.558-0.028-0.837-0.056c-0.279 0.419-2.372 3.209-2.734 3.209-0.14 0-3.125-1.786-3.46-1.981-0.084-0.056-0.112-0.14-0.112-0.195 0-0.474 1.172-3.292 1.423-3.85-0.335-0.446-0.614-0.921-0.837-1.451-0.558-0.056-4.157-0.446-4.157-0.865v-3.906c0-0.419 3.599-0.809 4.157-0.865 0.223-0.502 0.502-1.004 0.837-1.451-0.251-0.558-1.423-3.376-1.423-3.85 0-0.056 0.028-0.14 0.112-0.195 0.335-0.167 3.32-1.953 3.46-1.953 0.363 0 2.455 2.762 2.734 3.181 0.279-0.028 0.558-0.056 0.837-0.056s0.558 0.028 0.837 0.056c0.781-1.088 1.618-2.176 2.567-3.125l0.167-0.056c0.14 0 3.125 1.758 3.46 1.953 0.084 0.056 0.112 0.14 0.112 0.195 0 0.502-1.172 3.292-1.423 3.85 0.335 0.446 0.614 0.949 0.837 1.451 0.558 0.056 4.157 0.446 4.157 0.865zM53.571 8.761v3.906c0 0.419-3.599 0.809-4.157 0.865-0.223 0.53-0.502 1.004-0.837 1.451 0.251 0.558 1.423 3.348 1.423 3.85 0 0.084-0.028 0.14-0.112 0.195-0.335 0.195-3.32 1.981-3.46 1.981-0.363 0-2.455-2.79-2.734-3.209-0.279 0.028-0.558 0.056-0.837 0.056s-0.558-0.028-0.837-0.056c-0.279 0.419-2.372 3.209-2.734 3.209-0.14 0-3.125-1.786-3.46-1.981-0.084-0.056-0.112-0.14-0.112-0.195 0-0.474 1.172-3.292 1.423-3.85-0.335-0.446-0.614-0.921-0.837-1.451-0.558-0.056-4.157-0.446-4.157-0.865v-3.906c0-0.419 3.599-0.809 4.157-0.865 0.223-0.502 0.502-1.004 0.837-1.451-0.251-0.558-1.423-3.376-1.423-3.85 0-0.056 0.028-0.14 0.112-0.195 0.335-0.167 3.32-1.953 3.46-1.953 0.363 0 2.455 2.762 2.734 3.181 0.279-0.028 0.558-0.056 0.837-0.056s0.558 0.028 0.837 0.056c0.781-1.088 1.618-2.176 2.567-3.125l0.167-0.056c0.14 0 3.125 1.758 3.46 1.953 0.084 0.056 0.112 0.14 0.112 0.195 0 0.502-1.172 3.292-1.423 3.85 0.335 0.446 0.614 0.949 0.837 1.451 0.558 0.056 4.157 0.446 4.157 0.865z"></path>
</svg>
