<!-- Generated by IcoMoon.io -->
<svg version="1.1" xmlns="http://www.w3.org/2000/svg" width="50" height="50" viewBox="0 0 50 50">
<title>contact_mail</title>
<path d="M45.801 25v-12.5h-16.602v12.5h16.602zM29.199 37.5v-2.051c0-4.199-8.301-6.445-12.5-6.445s-12.5 2.246-12.5 6.445v2.051h25zM16.699 12.5c-3.418 0-6.25 2.832-6.25 6.25s2.832 6.25 6.25 6.25 6.25-2.832 6.25-6.25-2.832-6.25-6.25-6.25zM45.801 6.25c2.246 0 4.199 1.953 4.199 4.199v29.102c0 2.246-1.953 4.199-4.199 4.199h-41.602c-2.246 0-4.199-1.953-4.199-4.199v-29.102c0-2.246 1.953-4.199 4.199-4.199h41.602zM43.75 16.699l-6.25 4.102-6.25-4.102v-2.148l6.25 4.199 6.25-4.199v2.148z"></path>
</svg>
