<!-- Generated by IcoMoon.io -->
<svg version="1.1" xmlns="http://www.w3.org/2000/svg" width="50" height="50" viewBox="0 0 50 50">
<title>github</title>
<path d="M25 0.619c-13.813 0-25 11.194-25 25 0 11.048 7.162 20.417 17.094 23.719 1.25 0.235 1.708-0.538 1.708-1.202 0-0.594-0.021-2.167-0.031-4.25-6.954 1.508-8.421-3.354-8.421-3.354-1.137-2.885-2.781-3.656-2.781-3.656-2.265-1.55 0.175-1.519 0.175-1.519 2.51 0.175 3.829 2.575 3.829 2.575 2.229 3.823 5.852 2.719 7.281 2.079 0.225-1.617 0.869-2.719 1.583-3.344-5.552-0.625-11.388-2.775-11.388-12.354 0-2.729 0.969-4.958 2.573-6.708-0.281-0.631-1.125-3.173 0.219-6.617 0 0 2.094-0.671 6.875 2.563 2-0.556 4.125-0.831 6.25-0.844 2.125 0.012 4.25 0.287 6.25 0.844 4.75-3.233 6.844-2.563 6.844-2.563 1.344 3.444 0.5 5.985 0.25 6.617 1.594 1.75 2.563 3.979 2.563 6.708 0 9.604-5.844 11.719-11.406 12.333 0.875 0.75 1.688 2.283 1.688 4.625 0 3.346-0.031 6.033-0.031 6.846 0 0.656 0.438 1.438 1.719 1.188 10.002-3.279 17.158-12.654 17.158-23.685 0-13.806-11.194-25-25-25z"></path>
</svg>
