<!-- Generated by IcoMoon.io -->
<svg version="1.1" xmlns="http://www.w3.org/2000/svg" width="50" height="50" viewBox="0 0 50 50">
<title>linkedin2</title>
<path d="M45.313 0h-40.625c-2.578 0-4.688 2.109-4.688 4.688v40.625c0 2.578 2.109 4.688 4.688 4.688h40.625c2.578 0 4.688-2.109 4.688-4.688v-40.625c0-2.578-2.109-4.688-4.688-4.688zM18.75 40.625h-6.25v-21.875h6.25v21.875zM15.625 15.625c-1.729 0-3.125-1.396-3.125-3.125s1.396-3.125 3.125-3.125c1.729 0 3.125 1.396 3.125 3.125s-1.396 3.125-3.125 3.125zM40.625 40.625h-6.25v-12.5c0-1.729-1.396-3.125-3.125-3.125s-3.125 1.396-3.125 3.125v12.5h-6.25v-21.875h6.25v3.877c1.289-1.768 3.262-3.877 5.469-3.877 3.887 0 7.031 3.496 7.031 7.813v14.063z"></path>
</svg>
