<!-- Generated by IcoMoon.io -->
<svg version="1.1" xmlns="http://www.w3.org/2000/svg" width="50" height="50" viewBox="0 0 50 50">
<title>phone-portrait</title>
<path d="M43.75 18.75h-14.583v4.167h14.583v16.667h-14.583c0 2.292-2.083 4.167-2.083 4.167h16.667c2.292 0 4.167-1.875 4.167-4.167v-16.667c0-2.292-1.875-4.167-4.167-4.167zM20.833 6.25h-16.667c-2.292 0-4.167 1.875-4.167 4.167v29.167c0 2.292 1.875 4.167 4.167 4.167h16.667c2.292 0 4.167-1.875 4.167-4.167v-29.167c0-2.292-1.875-4.167-4.167-4.167zM14.583 41.667h-4.167v-4.167h4.167v4.167zM20.833 35.417h-16.667v-25h16.667v25z"></path>
</svg>
