<svg aria-hidden="true" style="position: absolute; width: 0; height: 0; overflow: hidden;" version="1.1" xmlns="http://www.w3.org/2000/svg" xmlns:xlink="http://www.w3.org/1999/xlink">
<defs>
<symbol id="icon-github" viewBox="0 0 24 24">
<title>github</title>
<path d="M22.5 8.5c0-1.5-0.5-2.8-1.4-4 0.3-1.3 0.2-2.7-0.3-3.9-0.1-0.3-0.3-0.5-0.6-0.6-0.4-0.1-1.7-0.3-4.4 1.4-2.2-0.5-4.5-0.5-6.6 0-2.7-1.7-4-1.5-4.4-1.4-0.3 0.1-0.5 0.3-0.6 0.6-0.6 1.3-0.7 2.6-0.3 3.9-0.9 1.2-1.4 2.6-1.4 4 0 5.4 3 7.1 5.8 7.7-0.2 0.7-0.3 1.3-0.3 1.9v0.1c-2.1 0.4-2.8-0.4-3.6-1.5-0.5-0.7-1.1-1.5-2.2-1.7-0.5-0.1-1.1 0.2-1.2 0.7s0.2 1.1 0.7 1.2c0.3 0.1 0.7 0.5 1.1 1 0.9 1.2 2.2 2.8 5.2 2.4v1.7c0 0.6 0.4 1 1 1s1-0.4 1-1v-2.9c0 0 0-0.1 0-0.1v-0.9c0-0.7 0.2-1.3 0.7-1.8 0.3-0.3 0.4-0.7 0.2-1-0.1-0.4-0.4-0.6-0.8-0.7-2.9-0.4-5.6-1.3-5.6-6 0-1.2 0.4-2.2 1.2-3.1 0.3-0.3 0.3-0.7 0.2-1-0.3-0.9-0.3-1.7-0.1-2.5 0.5 0.1 1.4 0.4 2.6 1.3 0.3 0.2 0.6 0.2 0.9 0.1 2.1-0.6 4.4-0.6 6.5 0 0.3 0.1 0.6 0 0.8-0.1 1.3-0.9 2.2-1.2 2.6-1.3 0.2 0.8 0.2 1.6-0.1 2.4-0.1 0.4-0.1 0.8 0.2 1 0.8 0.8 1.2 1.9 1.2 3.1 0 4.7-2.7 5.7-5.6 6-0.4 0-0.7 0.3-0.8 0.7s0 0.8 0.2 1c0.5 0.5 0.7 1.2 0.7 1.9v3.9c0 0.6 0.4 1 1 1s1-0.4 1-1v-3.8c0.1-0.7 0-1.3-0.3-1.9 2.4-0.5 5.8-2.1 5.8-7.8z"></path>
</symbol>
<symbol id="icon-facebook" viewBox="0 0 32 32">
<title>facebook</title>
<path d="M16-0.034c-8.841 0-16.035 7.192-16.035 16.034s7.194 16.034 16.035 16.034 16.035-7.192 16.035-16.034-7.194-16.034-16.035-16.034zM16 30.966c-8.252 0-14.965-6.714-14.965-14.966s6.713-14.966 14.965-14.966 14.965 6.714 14.965 14.966-6.713 14.966-14.965 14.966zM19.5 7h-2.668c-3.398-0.034-3.832 2.069-3.832 4.345v1.655h-1.5c-0.295-0.034-0.535 0.205-0.5 0.5v3c-0.035 0.295 0.205 0.534 0.5 0.5h1.5v7.5c-0.031 0.295 0.208 0.534 0.503 0.5h3.055c0.295 0.034 0.534-0.205 0.44-0.5l0.002-7.5h2.5c0.295 0.034 0.535-0.205 0.5-0.5v-3c0.035-0.295-0.205-0.534-0.5-0.5h-2.503l0.003-1.5c0.097-0.639 0.097-0.535 0.69-0.5h1.789c0.139-0.031 0.287-0.014 0.391-0.115s0.164-0.239 0.129-0.385v-3c0.036-0.295-0.204-0.534-0.499-0.5zM18.965 9.944l-1.254-0.048c-1.553 0-1.683 0.843-1.683 1.706l-0.004 1.896c0 0.142 0.056 0.278 0.156 0.379s0.236 0.156 0.378 0.156h2.442v1.932h-2.44c-0.295 0-0.534 0.239-0.535 0.534l-0.001 7.501h-2.024v-7.5c0-0.295-0.201-0.534-0.497-0.534h-1.503v-1.932h1.503c0.142 0 0.278-0.056 0.378-0.156s0.118-0.237 0.118-0.379v-2.155c0-2.242 0.453-3.31 2.832-3.31h2.133v1.91z"></path>
</symbol>
<symbol id="icon-googleplus" viewBox="0 0 32 32">
<title>googleplus</title>
<path d="M16-0.034c-8.842 0-16.034 7.192-16.034 16.034s7.192 16.034 16.034 16.034 16.034-7.192 16.034-16.034-7.192-16.034-16.034-16.034zM16 30.966c-8.252 0-14.966-6.714-14.966-14.966s6.714-14.966 14.966-14.966 14.966 6.714 14.966 14.966-6.714 14.966-14.966 14.966zM18.034 9.562c0-0.295-0.239-0.534-0.534-0.534h-4.26c-0.026 0-0.047 0.011-0.072 0.015-0.057-0.002-0.11-0.015-0.168-0.015-2.225 0-4.034 1.543-4.034 3.44s1.81 3.44 4.034 3.44c0.307 0 0.603-0.035 0.891-0.091-0.075 0.291-0.116 0.625-0.066 0.998 0.047 0.349 0.186 0.683 0.368 1.008-0.371-0.065-0.753-0.109-1.151-0.109-2.752 0-4.991 1.655-4.991 3.69s2.239 3.69 4.991 3.69c2.753 0 4.992-1.655 4.992-3.69 0-1.046-0.598-1.987-1.547-2.659-0.038-0.096-0.095-0.185-0.187-0.247-0.848-0.574-1.323-1.184-1.413-1.812-0.1-0.699 0.312-1.21 0.333-1.236 0.045-0.053 0.076-0.113 0.097-0.175 1.036-0.623 1.718-1.647 1.718-2.808 0-0.921-0.432-1.754-1.125-2.372h1.59c0.295 0.002 0.534-0.238 0.534-0.533zM13.042 24.028c-2.163 0-3.923-1.177-3.923-2.622s1.76-2.622 3.923-2.622 3.924 1.177 3.924 2.622-1.761 2.622-3.924 2.622zM13 14.841c-1.635 0-2.966-1.064-2.966-2.372s1.331-2.372 2.966-2.372 2.966 1.064 2.966 2.372-1.331 2.372-2.966 2.372zM25.312 12h-2.341v-2.375c0-0.295-0.239-0.534-0.534-0.534s-0.534 0.239-0.437 0.409v2.5h-2.438c-0.295-0.034-0.534 0.205-0.534 0.5s0.239 0.534 0.534 0.5h2.438v2.375c0 0.295 0.143 0.534 0.438 0.534s0.534-0.239 0.534-0.534v-2.375h2.341c0.295 0.034 0.534-0.205 0.534-0.5s-0.24-0.534-0.535-0.5z"></path>
</symbol>
<symbol id="icon-linkedin" viewBox="0 0 32 32">
<title>linkedin</title>
<path d="M19.515 11.952c-0.678 0-1.18 0.171-1.573 0.387-0.063-0.224-0.27-0.388-0.514-0.339h-2.984c-0.295-0.049-0.534 0.19-0.443 0.5v11c-0.091 0.28 0.148 0.52 0.443 0.5h2.984c0.295 0.020 0.534-0.22 0.534-0.515l-0.001-6.648c-0.001-0.003-0.012-0.321 0.189-0.54 0.161-0.174 0.438-0.263 0.821-0.263 0.638 0 0.922 0.261 1.028 0.845v6.606c-0.105 0.295 0.134 0.535 0.429 0.515h3.145c0.295 0.020 0.534-0.22 0.428-0.515v-6.828c0.105-3.472-2.368-4.705-4.486-4.705zM23.038 23h-2.076v-6.121c0-1.181-0.763-1.913-1.99-1.913-0.694 0-1.234 0.204-1.606 0.606-0.517 0.56-0.477 1.27-0.366 1.428v6h-2.022v-9.98h1.916v0.336c0 0.203 0.115 0.39 0.298 0.479s0.4 0.067 0.562-0.056l0.14-0.108c0.405-0.319 0.824-0.65 1.622-0.65 0.826 0 3.523 0.263 3.523 3.637v6.342zM11 6.966c-1.122 0-2.034 0.912-2.034 2.034s0.912 2.034 2.034 2.034 2.034-0.912 2.034-2.034-0.912-2.034-2.034-2.034zM11 9.966c-0.532 0-0.966-0.434-0.966-0.966s0.434-0.966 0.966-0.966 0.966 0.434 0.966 0.966-0.434 0.966-0.966 0.966zM12.428 11.951h-2.968c-0.295 0-0.534 0.239-0.46 0.549v11c-0.074 0.28 0.165 0.52 0.46 0.5h2.968c0.295 0.020 0.534-0.22 0.534-0.515v-11c0-0.295-0.239-0.534-0.534-0.534zM12 23h-2.006v-9.98h2.006v9.98zM16-0.034c-8.842 0-16.034 7.192-16.034 16.034s7.192 16.034 16.034 16.034 16.034-7.192 16.034-16.034-7.192-16.034-16.034-16.034zM16 30.966c-8.252 0-14.966-6.714-14.966-14.966s6.714-14.966 14.966-14.966 14.966 6.714 14.966 14.966-6.714 14.966-14.966 14.966z"></path>
</symbol>
<symbol id="icon-codepen" viewBox="0 0 32 32">
<title>codepen</title>
<path d="M32 10.909l-0.024-0.116-0.023-0.067c-0.013-0.032-0.024-0.067-0.040-0.1-0.004-0.024-0.020-0.045-0.027-0.067l-0.047-0.089-0.040-0.067-0.059-0.080-0.061-0.060-0.080-0.060-0.061-0.040-0.080-0.059-0.059-0.053-0.020-0.027-14.607-9.772c-0.463-0.309-1.061-0.309-1.523 0l-14.805 9.883-0.051 0.053-0.067 0.075-0.049 0.060-0.067 0.080c-0.027 0.023-0.040 0.040-0.040 0.061l-0.067 0.080-0.027 0.080c-0.027 0.013-0.027 0.053-0.040 0.093l-0.013 0.067c-0.025 0.041-0.025 0.081-0.025 0.121v9.996c0 0.059 0.004 0.12 0.013 0.18l0.013 0.061c0.007 0.040 0.013 0.080 0.027 0.115l0.020 0.067c0.013 0.036 0.021 0.071 0.036 0.1l0.029 0.067c0 0.013 0.020 0.053 0.040 0.080l0.040 0.053c0.020 0.013 0.040 0.053 0.060 0.080l0.040 0.053 0.053 0.053c0.013 0.017 0.013 0.040 0.040 0.040l0.080 0.056 0.053 0.040 0.013 0.019 14.627 9.773c0.219 0.16 0.5 0.217 0.76 0.217s0.52-0.080 0.76-0.24l14.877-9.875 0.069-0.077 0.044-0.060 0.053-0.080 0.040-0.067 0.040-0.093 0.021-0.069 0.040-0.103 0.020-0.060 0.040-0.107v-10c0-0.067 0-0.127-0.021-0.187l-0.019-0.060 0.059 0.004zM16.013 19.283l-4.867-3.253 4.867-3.256 4.867 3.253-4.867 3.253zM14.635 10.384l-5.964 3.987-4.817-3.221 10.781-7.187v6.424zM6.195 16.028l-3.443 2.307v-4.601l3.443 2.301zM8.671 17.695l5.964 3.987v6.427l-10.781-7.188 4.824-3.223v-0.005zM17.387 21.681l5.965-3.973 4.817 3.227-10.783 7.187v-6.427zM25.827 16.041l3.444-2.293v4.608l-3.444-2.307zM23.353 14.388l-5.964-3.988v-6.44l10.78 7.187-4.816 3.224z"></path>
</symbol>
</defs>
</svg>
