<!-- Generated by IcoMoon.io -->
<svg version="1.1" xmlns="http://www.w3.org/2000/svg" width="50" height="50" viewBox="0 0 50 50">
<title>arrow-up-circle</title>
<path d="M25 2.083c-12.708 0-22.917 10.208-22.917 22.917s10.208 22.917 22.917 22.917 22.917-10.208 22.917-22.917-10.208-22.917-22.917-22.917zM25 43.75c-10.417 0-18.75-8.333-18.75-18.75s8.333-18.75 18.75-18.75c10.417 0 18.75 8.333 18.75 18.75s-8.333 18.75-18.75 18.75z"></path>
<path d="M26.458 15.208c-0.208-0.208-0.417-0.417-0.625-0.417-0.417-0.208-1.042-0.208-1.667 0-0.208 0.208-0.417 0.208-0.625 0.417l-8.333 8.333c-0.833 0.833-0.833 2.083 0 2.917s2.083 0.833 2.917 0l4.792-4.792v11.667c0 1.25 0.833 2.083 2.083 2.083s2.083-0.833 2.083-2.083v-11.667l4.792 4.792c0.417 0.417 1.042 0.625 1.458 0.625s1.042-0.208 1.458-0.625c0.833-0.833 0.833-2.083 0-2.917l-8.333-8.333z"></path>
</svg>
