<!-- Generated by IcoMoon.io -->
<svg version="1.1" xmlns="http://www.w3.org/2000/svg" width="50" height="50" viewBox="0 0 50 50">
<title>atom</title>
<path d="M38.573 25.058c3.583 3.864 5.188 7.666 3.795 10.103-1.389 2.431-5.439 2.933-10.528 1.741-1.523 5.092-3.991 8.417-6.783 8.417-2.795 0-5.261-3.336-6.781-8.442-5.145 1.227-9.244 0.734-10.644-1.716-1.392-2.437 0.214-6.244 3.797-10.113-3.652-3.9-5.295-7.75-3.891-10.206 1.406-2.463 5.544-2.948 10.725-1.698 1.522-5.117 3.997-8.463 6.795-8.463 2.797 0 5.264 3.334 6.784 8.439 5.133-1.219 9.225-0.725 10.623 1.722 1.4 2.458-0.245 6.311-3.894 10.216zM8.987 15.689c-1.075 1.881 0.408 4.966 3.547 8.227 1.28-1.248 2.753-2.488 4.394-3.678 0.2-1.978 0.505-3.855 0.922-5.563-4.386-1.127-7.783-0.875-8.862 1.014zM16.752 22.439c-1.125 0.856-2.152 1.725-3.072 2.592 0.933 0.872 1.939 1.747 3.078 2.609-0.047-0.867-0.080-1.744-0.080-2.641 0-0.869 0.028-1.722 0.073-2.561zM16.927 29.834c-1.642-1.186-3.111-2.422-4.395-3.666-3.083 3.231-4.514 6.28-3.448 8.145 1.073 1.877 4.434 2.137 8.781 1.034-0.417-1.698-0.739-3.545-0.938-5.514zM31.389 30.992c-0.697 0.458-1.409 0.908-2.152 1.341-0.753 0.439-1.506 0.842-2.256 1.227 1.286 0.547 2.544 1.023 3.737 1.389 0.28-1.225 0.497-2.561 0.67-3.956zM25.056 43.625c2.139 0 4.037-2.789 5.266-7.12-1.695-0.488-3.486-1.166-5.311-1.991-1.792 0.814-3.545 1.469-5.214 1.958 1.225 4.342 3.12 7.153 5.259 7.153zM19.411 34.909c1.159-0.361 2.372-0.809 3.619-1.341-0.753-0.386-1.511-0.794-2.267-1.234-0.702-0.411-1.377-0.833-2.037-1.266 0.17 1.37 0.412 2.634 0.686 3.841zM18.728 18.994c0.689-0.452 1.395-0.895 2.128-1.325 0.723-0.423 1.447-0.813 2.169-1.184-1.252-0.534-2.477-1.006-3.642-1.37-0.272 1.203-0.483 2.514-0.655 3.88zM25.056 6.375c-2.145 0-4.053 2.816-5.28 7.178 1.667 0.491 3.423 1.164 5.212 1.98 1.831-0.839 3.622-1.509 5.327-2.006-1.225-4.339-3.119-7.152-5.259-7.152zM30.705 15.086c-1.2 0.373-2.453 0.836-3.747 1.392 0.727 0.373 1.456 0.766 2.184 1.192 0.784 0.458 1.534 0.934 2.267 1.419-0.172-1.43-0.42-2.75-0.705-4.003zM31.625 21.256c-1.047-0.728-2.153-1.439-3.322-2.119-1.119-0.653-2.228-1.223-3.325-1.756-1.083 0.528-2.181 1.114-3.283 1.756-1.114 0.648-2.178 1.327-3.18 2.017-0.097 1.245-0.162 2.52-0.162 3.847 0 1.341 0.055 2.645 0.152 3.905 0.98 0.673 2.014 1.331 3.095 1.962 1.15 0.67 2.291 1.256 3.419 1.8 1.114-0.541 2.245-1.139 3.378-1.8 1.123-0.655 2.191-1.336 3.202-2.034 0.095-1.241 0.162-2.511 0.162-3.833 0-1.284-0.047-2.536-0.136-3.745zM40.917 34.314c1.066-1.863-0.378-4.906-3.455-8.13-1.252 1.209-2.684 2.409-4.275 3.564-0.2 2.003-0.509 3.905-0.934 5.631 4.291 1.070 7.602 0.794 8.664-1.066zM33.364 27.547c1.077-0.822 2.064-1.656 2.955-2.486-0.894-0.844-1.858-1.692-2.948-2.528 0.039 0.811 0.067 1.631 0.067 2.467-0.002 0.866-0.030 1.712-0.073 2.547zM41.011 15.689c-1.072-1.873-4.422-2.139-8.758-1.041 0.427 1.747 0.756 3.655 0.953 5.689 1.592 1.164 3.016 2.375 4.263 3.592 3.145-3.267 4.62-6.356 3.542-8.241zM25.313 28.222c-1.839 0-3.33-1.505-3.33-3.363 0-1.856 1.491-3.363 3.33-3.363 1.837 0 3.328 1.506 3.328 3.363 0 1.859-1.491 3.363-3.328 3.363z"></path>
</svg>
