<!-- Generated by IcoMoon.io -->
<svg version="1.1" xmlns="http://www.w3.org/2000/svg" width="50" height="50" viewBox="0 0 50 50">
<title>codepen2</title>
<path d="M46.179 17.971l-21.875-14.583c-0.525-0.35-1.209-0.35-1.733 0l-21.875 14.583c-0.435 0.29-0.696 0.778-0.696 1.3v14.583c0 0.522 0.261 1.010 0.696 1.3l21.875 14.583c0.262 0.175 0.565 0.262 0.867 0.262s0.604-0.087 0.867-0.262l21.875-14.583c0.435-0.29 0.696-0.778 0.696-1.3v-14.583c0-0.522-0.261-1.010-0.696-1.3zM23.438 31.976l-8.121-5.414 8.121-5.414 8.121 5.414-8.121 5.414zM25 18.435v-10.828l17.496 11.664-8.121 5.414-9.375-6.25zM21.875 18.435l-9.375 6.25-8.121-5.414 17.496-11.664v10.828zM9.683 26.563l-6.558 4.372v-8.744l6.558 4.372zM12.5 28.44l9.375 6.25v10.828l-17.496-11.664 8.121-5.414zM25 34.69l9.375-6.25 8.121 5.414-17.496 11.664v-10.828zM37.192 26.563l6.558-4.372v8.744l-6.558-4.372z"></path>
</svg>
