<!-- Generated by IcoMoon.io -->
<svg version="1.1" xmlns="http://www.w3.org/2000/svg" width="50" height="50" viewBox="0 0 50 50">
<title>codepen</title>
<path d="M50 17.046l-0.038-0.181-0.035-0.104c-0.021-0.050-0.038-0.104-0.063-0.156-0.006-0.037-0.031-0.071-0.042-0.104l-0.073-0.14-0.062-0.104-0.092-0.125-0.096-0.094-0.125-0.094-0.096-0.062-0.125-0.092-0.092-0.083-0.031-0.042-22.823-15.269c-0.723-0.483-1.658-0.483-2.379 0l-23.133 15.442-0.079 0.083-0.104 0.117-0.077 0.094-0.104 0.125c-0.042 0.035-0.063 0.063-0.063 0.096l-0.104 0.125-0.042 0.125c-0.042 0.021-0.042 0.083-0.063 0.146l-0.021 0.104c-0.040 0.065-0.040 0.127-0.040 0.19v15.619c0 0.092 0.006 0.188 0.021 0.281l0.021 0.096c0.010 0.063 0.021 0.125 0.042 0.179l0.031 0.104c0.021 0.056 0.033 0.11 0.056 0.156l0.046 0.104c0 0.021 0.031 0.083 0.063 0.125l0.063 0.083c0.031 0.021 0.063 0.083 0.094 0.125l0.062 0.083 0.083 0.083c0.021 0.027 0.021 0.063 0.062 0.063l0.125 0.088 0.083 0.062 0.021 0.029 22.854 15.271c0.342 0.25 0.781 0.34 1.188 0.34s0.813-0.125 1.188-0.375l23.246-15.429 0.108-0.121 0.069-0.094 0.083-0.125 0.062-0.104 0.063-0.146 0.033-0.108 0.063-0.16 0.031-0.094 0.062-0.167v-15.625c0-0.104 0-0.198-0.033-0.292l-0.029-0.094 0.092 0.006zM25.021 30.129l-7.604-5.083 7.604-5.087 7.604 5.083-7.604 5.083zM22.867 16.225l-9.319 6.229-7.527-5.033 16.846-11.229v10.038zM9.679 25.044l-5.379 3.604v-7.19l5.379 3.596zM13.548 27.648l9.319 6.229v10.042l-16.846-11.231 7.538-5.035v-0.008zM27.167 33.877l9.321-6.208 7.527 5.042-16.848 11.229v-10.042zM40.354 25.065l5.381-3.583v7.2l-5.381-3.604zM36.49 22.481l-9.319-6.231v-10.063l16.844 11.229-7.525 5.038z"></path>
</svg>
