<!-- Generated by IcoMoon.io -->
<svg version="1.1" xmlns="http://www.w3.org/2000/svg" width="50" height="50" viewBox="0 0 50 50">
<title>facebook-c</title>
<path fill="#3b5998" d="M47.242 0h-44.483c-1.523 0-2.758 1.235-2.758 2.758v44.483c0 1.525 1.235 2.758 2.758 2.758h23.946v-19.362h-6.519v-7.544h6.519v-5.573c0-6.456 3.946-9.969 9.706-9.969 2.76 0 5.133 0.202 5.825 0.294v6.75h-4.002c-3.125 0-3.733 1.502-3.733 3.69v4.815h7.467l-0.969 7.563h-6.498v19.337h12.74c1.527 0 2.76-1.233 2.76-2.758v-44.483c0-1.523-1.233-2.758-2.758-2.758z"></path>
</svg>
