<!-- Generated by IcoMoon.io -->
<svg version="1.1" xmlns="http://www.w3.org/2000/svg" width="66" height="50" viewBox="0 0 66 50">
<title>gears</title>
<path d="M5.769 33.938c0.275 0.066 0.648 0.405 0.756 0.714l0.547 1.319c0.123 0.253 0.1 0.755-0.047 0.995l-2.183 3.569c-0.467 0.766-0.37 1.85 0.258 2.553l1.848 1.847c0.644 0.572 1.78 0.675 2.52 0.227l3.569-2.183c0.223-0.138 0.703-0.186 1.039-0.028l1.317 0.544c0.266 0.092 0.605 0.464 0.67 0.739l0.98 4.069c0.208 0.862 1.031 1.572 1.916 1.653 0 0 0.542 0.050 1.355 0.050s1.355-0.050 1.356-0.050c0.883-0.080 1.706-0.791 1.914-1.653l0.981-4.069c0.066-0.273 0.403-0.647 0.712-0.755l1.319-0.547c0.233-0.114 0.772-0.091 0.995 0.047l3.569 2.183c0.314 0.192 0.689 0.294 1.088 0.294 0.539 0 1.061-0.189 1.466-0.55l1.847-1.848c0.597-0.67 0.694-1.755 0.227-2.52l-2.183-3.569c-0.147-0.241-0.17-0.742-0.028-1.039l0.544-1.317c0.092-0.266 0.464-0.605 0.739-0.67l4.069-0.98c0.862-0.208 1.572-1.031 1.653-1.916 0 0 0.050-0.542 0.050-1.355s-0.050-1.355-0.050-1.356c-0.080-0.883-0.791-1.706-1.653-1.916l-4.067-0.978c-0.275-0.066-0.648-0.405-0.756-0.714l-0.547-1.319c-0.123-0.253-0.1-0.755 0.047-0.995l2.183-3.569c0.467-0.766 0.37-1.85-0.258-2.553l-1.848-1.847c-0.645-0.573-1.783-0.677-2.52-0.227l-3.569 2.183c-0.223 0.136-0.705 0.188-1.039 0.028l-1.317-0.544c-0.266-0.092-0.603-0.464-0.669-0.739l-0.981-4.069c-0.208-0.863-1.031-1.572-1.916-1.653-0.003 0.002-0.545-0.048-1.358-0.048s-1.355 0.050-1.356 0.050c-0.883 0.080-1.706 0.791-1.916 1.653l-0.978 4.066c-0.066 0.275-0.405 0.648-0.714 0.756l-1.319 0.547c-0.234 0.114-0.772 0.089-0.995-0.047l-3.567-2.183c-0.739-0.45-1.852-0.372-2.553 0.256l-1.847 1.848c-0.597 0.67-0.694 1.755-0.227 2.52l2.183 3.569c0.147 0.241 0.17 0.742 0.028 1.039l-0.544 1.317c-0.092 0.266-0.464 0.605-0.739 0.67l-4.069 0.98c-0.863 0.208-1.572 1.031-1.653 1.916 0.003 0-0.047 0.542-0.047 1.355s0.050 1.355 0.050 1.356c0.080 0.883 0.791 1.706 1.653 1.916l4.066 0.978zM1.563 29.688c0-0.716 0.042-1.198 0.044-1.214 0.019-0.211 0.258-0.488 0.463-0.538l4.069-0.98c0.789-0.191 1.584-0.912 1.831-1.636l0.506-1.23c0.356-0.73 0.306-1.802-0.117-2.495l-2.183-3.567c-0.105-0.173-0.075-0.517 0.028-0.634l1.783-1.784c0.142-0.127 0.505-0.158 0.667-0.059l3.569 2.183c0.677 0.414 1.836 0.442 2.45 0.137l1.231-0.509c0.767-0.264 1.489-1.059 1.68-1.85l0.978-4.067c0.050-0.206 0.327-0.445 0.537-0.464 0.016 0 0.498-0.042 1.214-0.042s1.198 0.042 1.214 0.044c0.211 0.019 0.487 0.258 0.537 0.463l0.98 4.067c0.191 0.789 0.911 1.586 1.636 1.833l1.23 0.506c0.714 0.35 1.82 0.295 2.495-0.117l3.567-2.183c0.162-0.098 0.547-0.047 0.634 0.028l1.784 1.783c0.134 0.152 0.164 0.494 0.059 0.667l-2.183 3.569c-0.423 0.692-0.473 1.766-0.138 2.45l0.509 1.231c0.264 0.767 1.059 1.489 1.85 1.68l4.067 0.978c0.206 0.050 0.445 0.327 0.464 0.538 0 0.016 0.042 0.498 0.042 1.214s-0.042 1.198-0.044 1.214c-0.019 0.211-0.258 0.488-0.462 0.538l-4.069 0.98c-0.789 0.191-1.584 0.913-1.831 1.636l-0.506 1.23c-0.356 0.73-0.306 1.802 0.117 2.495l2.183 3.567c0.105 0.173 0.075 0.517-0.028 0.634l-1.783 1.784c-0.084 0.075-0.237 0.123-0.392 0.123-0.108 0-0.208-0.023-0.273-0.064l-3.569-2.183c-0.675-0.413-1.834-0.442-2.45-0.138l-1.231 0.509c-0.767 0.264-1.489 1.061-1.678 1.85l-0.98 4.067c-0.050 0.206-0.327 0.445-0.538 0.464-0.017 0-0.5 0.042-1.216 0.042s-1.198-0.042-1.214-0.044c-0.211-0.019-0.488-0.258-0.538-0.462l-0.98-4.069c-0.191-0.789-0.912-1.584-1.636-1.831l-1.23-0.506c-0.319-0.156-0.705-0.238-1.117-0.238-0.514 0-1.003 0.127-1.378 0.356l-3.567 2.183c-0.163 0.098-0.548 0.045-0.634-0.028l-1.784-1.784c-0.134-0.152-0.164-0.494-0.059-0.667l2.183-3.569c0.423-0.692 0.473-1.766 0.138-2.45l-0.509-1.231c-0.264-0.767-1.059-1.489-1.85-1.68l-4.067-0.978c-0.206-0.050-0.445-0.327-0.464-0.538 0-0.016-0.042-0.498-0.042-1.214zM20.313 38.281c4.739 0 8.594-3.855 8.594-8.594s-3.855-8.594-8.594-8.594-8.594 3.855-8.594 8.594 3.855 8.594 8.594 8.594zM20.313 22.656c3.877 0 7.031 3.155 7.031 7.031s-3.155 7.031-7.031 7.031-7.031-3.155-7.031-7.031 3.155-7.031 7.031-7.031zM42.933 8.303c-0.062 0.095-0.289 0.216-0.405 0.216l-2.908-0.028c-0.706 0-1.414 0.502-1.645 1.166 0 0-0.128 0.364-0.269 0.922s-0.2 0.939-0.2 0.939c-0.109 0.705 0.283 1.484 0.913 1.814l2.564 1.344c0.098 0.052 0.244 0.269 0.259 0.427l0.145 0.992c0.023 0.109-0.052 0.359-0.131 0.437l-2.066 2.025c-0.517 0.506-0.653 1.372-0.297 2.052l0.936 1.563c0.395 0.581 1.252 0.878 1.923 0.669l2.85-0.872c0.155 0 0.309 0.059 0.397 0.13l0.805 0.594c0.094 0.063 0.217 0.292 0.216 0.405l-0.028 2.894c-0.006 0.712 0.494 1.427 1.166 1.661 0 0 0.364 0.128 0.922 0.269s0.939 0.2 0.939 0.2c0.041 0.006 0.203 0.019 0.244 0.019 0.638 0 1.284-0.383 1.57-0.931l1.344-2.564c0.052-0.098 0.269-0.244 0.427-0.259l1.036-0.15c0.156 0 0.341 0.081 0.392 0.134l2.025 2.066c0.492 0.503 1.322 0.683 2.052 0.297l1.561-0.936c0.597-0.406 0.886-1.234 0.67-1.923l-0.862-2.761c-0.033-0.106 0.019-0.363 0.122-0.486l0.594-0.805c0.063-0.095 0.289-0.216 0.405-0.216l2.908 0.028c0.706 0 1.414-0.502 1.645-1.166 0 0 0.128-0.364 0.269-0.922s0.2-0.939 0.2-0.939c0.109-0.705-0.283-1.484-0.913-1.814l-2.564-1.344c-0.098-0.052-0.244-0.269-0.259-0.427l-0.144-0.989c-0.023-0.109 0.052-0.359 0.131-0.438l2.066-2.025c0.517-0.506 0.653-1.372 0.297-2.052l-0.936-1.563c-0.395-0.58-1.25-0.88-1.923-0.67l-2.852 0.872c-0.155 0-0.309-0.059-0.397-0.13l-0.805-0.594c-0.094-0.063-0.217-0.292-0.216-0.405l0.028-2.894c0.006-0.712-0.494-1.427-1.166-1.661 0 0-0.364-0.128-0.922-0.269s-0.939-0.2-0.939-0.2c-0.041-0.005-0.203-0.017-0.244-0.017-0.638 0-1.284 0.383-1.57 0.931l-1.344 2.564c-0.052 0.098-0.269 0.244-0.427 0.259l-1.036 0.148c-0.156 0-0.341-0.081-0.392-0.134l-2.025-2.066c-0.491-0.502-1.319-0.683-2.052-0.297l-1.563 0.934c-0.597 0.406-0.886 1.234-0.67 1.923l0.862 2.761c0.033 0.106-0.019 0.363-0.122 0.486l-0.592 0.805zM44.214 9.197l0.536-0.728c0.419-0.495 0.581-1.303 0.388-1.92l-0.861-2.759c-0.008-0.044 0.027-0.142 0.019-0.144l1.481-0.888 0.177 0.027 2.027 2.066c0.359 0.366 0.952 0.603 1.508 0.603 0.128 0 0.252-0.013 0.319-0.030l0.898-0.133c0.644-0.056 1.33-0.513 1.63-1.084l1.342-2.563c0.025-0.039 0.123-0.095 0.187-0.095 0.017 0.002 0.336 0.055 0.802 0.17 0.464 0.117 0.77 0.222 0.784 0.228 0.048 0.020 0.119 0.122 0.122 0.172l-0.028 2.894c-0.006 0.647 0.383 1.373 0.886 1.702l0.727 0.536c0.483 0.408 1.311 0.58 1.92 0.388l2.772-0.863c0.066 0 0.139 0.041 0.13 0.020l0.887 1.481c0.017 0.041 0 0.144-0.027 0.177l-2.066 2.027c-0.461 0.455-0.7 1.242-0.573 1.827l0.131 0.898c0.056 0.644 0.513 1.33 1.086 1.63l2.563 1.342c0.044 0.028 0.098 0.137 0.095 0.188-0.002 0.017-0.055 0.336-0.17 0.802-0.117 0.464-0.222 0.77-0.228 0.784-0.020 0.048-0.122 0.119-0.172 0.122l-2.909-0.028c-0.642 0-1.361 0.389-1.686 0.886l-0.534 0.727c-0.419 0.495-0.581 1.303-0.387 1.92l0.861 2.759c0.008 0.042-0.027 0.142-0.019 0.144l-1.481 0.888-0.177-0.027-2.027-2.066c-0.359-0.366-0.952-0.603-1.508-0.603-0.128 0-0.252 0.012-0.319 0.030l-0.898 0.133c-0.644 0.056-1.33 0.512-1.63 1.084l-1.342 2.563c-0.025 0.039-0.123 0.095-0.188 0.095v0c-0.017-0.002-0.336-0.055-0.802-0.17-0.464-0.117-0.77-0.222-0.784-0.228-0.048-0.020-0.119-0.122-0.122-0.172l0.028-2.894c0.006-0.647-0.383-1.373-0.886-1.702l-0.727-0.536c-0.347-0.294-0.858-0.469-1.367-0.469-0.197 0-0.384 0.028-0.555 0.081l-2.772 0.862c-0.067 0-0.141-0.036-0.13-0.020l-0.888-1.481c-0.017-0.041 0-0.144 0.027-0.177l2.066-2.027c0.461-0.455 0.7-1.242 0.573-1.827l-0.131-0.897c-0.056-0.644-0.512-1.33-1.086-1.63l-2.563-1.342c-0.044-0.028-0.098-0.137-0.095-0.188 0.002-0.017 0.055-0.336 0.17-0.802 0.117-0.464 0.222-0.77 0.228-0.784 0.020-0.048 0.122-0.119 0.172-0.122l2.909 0.028c0.642 0 1.361-0.389 1.686-0.886zM51.563 18.75c2.584 0 4.688-2.103 4.688-4.688s-2.103-4.688-4.688-4.688-4.688 2.103-4.688 4.688 2.103 4.688 4.688 4.688zM51.563 10.938c1.723 0 3.125 1.402 3.125 3.125s-1.402 3.125-3.125 3.125-3.125-1.402-3.125-3.125 1.402-3.125 3.125-3.125z"></path>
</svg>
