<!-- Generated by IcoMoon.io -->
<svg version="1.1" xmlns="http://www.w3.org/2000/svg" width="50" height="50" viewBox="0 0 50 50">
<title>lamp</title>
<path d="M27.73 21.902c-1.953 0.878-6.284-1.273-6.284-1.273-5.075-3.042 1.906 9.489 1.906 9.489s0.145 3.911 1.023 4.398c7.323-10.255 5.308-13.494 3.355-12.614zM25.094 31.625c-0.592 0-3.081-7.467-2.787-9.030 1.955 0.195 3.764 0.933 4.839 0.347 3.027-1.372-1.369 8.683-2.052 8.683zM31.175 37.417c0.18-11.414 6.322-15.806 6.322-22.603 0-5.8-3.969-13.203-12.297-13.203-8.327 0-12.697 7.083-12.697 13.256 0 6.931 6.239 11.288 6.239 22.622h6.317c0 0 5.934-0.072 6.116-0.072zM20.014 35.969c0-10.58-6.044-14.645-6.044-21.114 0-5.763 3.922-11.806 11.208-11.806s10.856 6.344 10.856 11.756c0 6.344-5.959 10.534-6.119 21.188-0.159 0-4.861-0.025-4.861-0.025h-5.041zM30.477 39.084h-10.938c-0.431 0-0.781 0.35-0.781 0.781s0.35 0.781 0.781 0.781h10.938c0.43 0 0.781-0.35 0.781-0.781s-0.352-0.781-0.781-0.781zM30.477 42.209h-10.938c-0.431 0-0.781 0.35-0.781 0.781s0.35 0.781 0.781 0.781h10.938c0.43 0 0.781-0.35 0.781-0.781s-0.352-0.781-0.781-0.781zM20.308 45.38c0 0 0 0.522 0 1.406s0.694 1.602 1.55 1.602h6.298c0.858 0 1.55-0.717 1.55-1.602s-0.097-1.406-0.097-1.406h-9.302z"></path>
</svg>
