<!-- Generated by IcoMoon.io -->
<svg version="1.1" xmlns="http://www.w3.org/2000/svg" width="34" height="50" viewBox="0 0 34 50">
<title>lightbulb</title>
<path d="M17.188 0c-8.266 0-17.188 6.572-17.188 17.188 0 5.239 2.084 9.647 6.087 12.987 0.042 0.053 0.091 0.098 0.144 0.137 2.97 3.222 3.12 3.834 3.141 5.252 0.009 0.561 0.005 0.727 0 0.817l-0.006 0.327c-0.023 0.706-0.059 1.889 1.405 2.336l12.647 2.783c0.056 0.013 0.112 0.019 0.167 0.019 0.359 0 0.683-0.248 0.762-0.614 0.094-0.422-0.173-0.839-0.595-0.931l-12.586-2.767c-0.242-0.073-0.262-0.080-0.241-0.778l0.005-0.298c0 0 0.016-0.122 0.003-0.916-0.030-1.983-0.461-2.941-3.608-6.342-0.061-0.075-0.134-0.138-0.216-0.184-3.681-3.13-5.547-7.108-5.547-11.827 0-9.652 8.109-15.625 15.625-15.625 7.681 0 15.625 5.845 15.625 15.625 0 6.216-3.012 9.642-5.497 11.798-0.086 0.041-0.162 0.098-0.23 0.17-3.183 3.444-3.614 4.402-3.644 6.384 0 0.047-0.002 0.102 0 0.161l-0.002 0.055c-0.005 0.119-0.022 0.184-0.020 0.209-0.053-0.008-0.183-0.028-0.183-0.028l-6.555-1.542c-0.425-0.097-0.841 0.162-0.939 0.581-0.098 0.42 0.161 0.841 0.581 0.941l6.475 1.519c0.086 0.031 0.864 0.284 1.52-0.177 0.286-0.202 0.619-0.597 0.678-1.353l0.005-0.073c0.002-0.050 0.003-0.102 0.003-0.155 0-0.014 0-0.028-0.002-0.041l0.002-0.072c0.020-1.409 0.167-2.022 3.133-5.244 0.014-0.011 0.030-0.022 0.042-0.034 4.167-3.502 6.194-7.788 6.194-13.1 0-10.758-8.739-17.188-17.187-17.188zM23.438 46.094c0.358 0 0.68-0.245 0.761-0.609 0.097-0.42-0.167-0.839-0.589-0.934l-12.5-2.834c-0.423-0.094-0.839 0.169-0.934 0.589-0.097 0.42 0.167 0.839 0.589 0.934l12.5 2.834c0.059 0.014 0.117 0.020 0.173 0.020zM11.889 46.178c-0.423-0.094-0.837 0.17-0.934 0.591-0.094 0.422 0.17 0.839 0.592 0.933l10.156 2.278c0.059 0.014 0.116 0.020 0.172 0.020 0.358 0 0.681-0.247 0.762-0.611 0.094-0.422-0.17-0.839-0.592-0.933l-10.156-2.278z"></path>
</svg>
