<!-- Generated by IcoMoon.io -->
<svg version="1.1" xmlns="http://www.w3.org/2000/svg" width="50" height="50" viewBox="0 0 50 50">
<title>linkedin-c</title>
<path fill="#0077b5" d="M42.598 42.608h-7.404v-11.602c0-2.767-0.056-6.327-3.858-6.327-3.86 0-4.45 3.010-4.45 6.123v11.806h-7.404v-23.858h7.113v3.252h0.096c0.994-1.875 3.41-3.854 7.021-3.854 7.502 0 8.89 4.938 8.89 11.365v13.096zM11.119 15.485c-2.383 0-4.298-1.929-4.298-4.302 0-2.371 1.917-4.298 4.298-4.298 2.375 0 4.3 1.927 4.3 4.298 0 2.373-1.927 4.302-4.3 4.302zM14.831 42.608h-7.425v-23.858h7.425v23.858zM46.302 0h-42.612c-2.040 0-3.69 1.613-3.69 3.602v42.796c0 1.992 1.65 3.602 3.69 3.602h42.606c2.038 0 3.704-1.61 3.704-3.602v-42.796c0-1.99-1.667-3.602-3.704-3.602h0.006z"></path>
</svg>
