<!-- Generated by IcoMoon.io -->
<svg version="1.1" xmlns="http://www.w3.org/2000/svg" width="50" height="50" viewBox="0 0 50 50">
<title>phone</title>
<path d="M37.5 0h-25c-2.591 0-4.688 2.098-4.688 4.688v40.625c0 2.591 2.098 4.688 4.688 4.688h25c2.587 0 4.688-2.1 4.688-4.688v-40.625c0-2.591-2.1-4.688-4.688-4.688zM39.063 45.313c0 0.861-0.702 1.563-1.563 1.563h-25c-0.862 0-1.563-0.698-1.563-1.563v-3.131h28.125v3.131zM39.063 40.619h-28.125v-31.244h28.125v31.244zM39.063 7.813h-28.125v-3.125c0-0.863 0.7-1.563 1.563-1.563h25c0.861 0 1.563 0.7 1.563 1.563v3.125zM28.125 5.469c0 0.431-0.352 0.781-0.781 0.781h-4.688c-0.433 0-0.781-0.35-0.781-0.781v0c0-0.433 0.348-0.781 0.781-0.781h4.688c0.43 0 0.781 0.348 0.781 0.781v0zM26.563 44.525c0 0.43-0.352 0.781-0.781 0.781h-1.563c-0.431 0-0.781-0.352-0.781-0.781v0c0-0.433 0.35-0.781 0.781-0.781h1.563c0.43 0 0.781 0.348 0.781 0.781v0z"></path>
</svg>
