<svg aria-hidden="true" style="position: absolute; width: 0; height: 0; overflow: hidden;" version="1.1" xmlns="http://www.w3.org/2000/svg" xmlns:xlink="http://www.w3.org/1999/xlink">
<defs>
<symbol id="icon-phone" viewBox="0 0 50 50">
<title>phone</title>
<path d="M37.5 0h-25c-2.591 0-4.688 2.098-4.688 4.688v40.625c0 2.591 2.098 4.688 4.688 4.688h25c2.587 0 4.688-2.1 4.688-4.688v-40.625c0-2.591-2.1-4.688-4.688-4.688zM39.063 45.313c0 0.861-0.702 1.563-1.563 1.563h-25c-0.862 0-1.563-0.698-1.563-1.563v-3.131h28.125v3.131zM39.063 40.619h-28.125v-31.244h28.125v31.244zM39.063 7.813h-28.125v-3.125c0-0.863 0.7-1.563 1.563-1.563h25c0.861 0 1.563 0.7 1.563 1.563v3.125zM28.125 5.469c0 0.431-0.352 0.781-0.781 0.781h-4.688c-0.433 0-0.781-0.35-0.781-0.781v0c0-0.433 0.348-0.781 0.781-0.781h4.688c0.43 0 0.781 0.348 0.781 0.781v0zM26.563 44.525c0 0.43-0.352 0.781-0.781 0.781h-1.563c-0.431 0-0.781-0.352-0.781-0.781v0c0-0.433 0.35-0.781 0.781-0.781h1.563c0.43 0 0.781 0.348 0.781 0.781v0z"></path>
</symbol>
<symbol id="icon-atom" viewBox="0 0 50 50">
<title>atom</title>
<path d="M38.573 25.058c3.583 3.864 5.188 7.666 3.795 10.103-1.389 2.431-5.439 2.933-10.528 1.741-1.523 5.092-3.991 8.417-6.783 8.417-2.795 0-5.261-3.336-6.781-8.442-5.145 1.227-9.244 0.734-10.644-1.716-1.392-2.437 0.214-6.244 3.797-10.113-3.652-3.9-5.295-7.75-3.891-10.206 1.406-2.463 5.544-2.948 10.725-1.698 1.522-5.117 3.997-8.463 6.795-8.463 2.797 0 5.264 3.334 6.784 8.439 5.133-1.219 9.225-0.725 10.623 1.722 1.4 2.458-0.245 6.311-3.894 10.216zM8.987 15.689c-1.075 1.881 0.408 4.966 3.547 8.227 1.28-1.248 2.753-2.488 4.394-3.678 0.2-1.978 0.505-3.855 0.922-5.563-4.386-1.127-7.783-0.875-8.862 1.014zM16.752 22.439c-1.125 0.856-2.152 1.725-3.072 2.592 0.933 0.872 1.939 1.747 3.078 2.609-0.047-0.867-0.080-1.744-0.080-2.641 0-0.869 0.028-1.722 0.073-2.561zM16.927 29.834c-1.642-1.186-3.111-2.422-4.395-3.666-3.083 3.231-4.514 6.28-3.448 8.145 1.073 1.877 4.434 2.137 8.781 1.034-0.417-1.698-0.739-3.545-0.938-5.514zM31.389 30.992c-0.697 0.458-1.409 0.908-2.152 1.341-0.753 0.439-1.506 0.842-2.256 1.227 1.286 0.547 2.544 1.023 3.737 1.389 0.28-1.225 0.497-2.561 0.67-3.956zM25.056 43.625c2.139 0 4.037-2.789 5.266-7.12-1.695-0.488-3.486-1.166-5.311-1.991-1.792 0.814-3.545 1.469-5.214 1.958 1.225 4.342 3.12 7.153 5.259 7.153zM19.411 34.909c1.159-0.361 2.372-0.809 3.619-1.341-0.753-0.386-1.511-0.794-2.267-1.234-0.702-0.411-1.377-0.833-2.037-1.266 0.17 1.37 0.412 2.634 0.686 3.841zM18.728 18.994c0.689-0.452 1.395-0.895 2.128-1.325 0.723-0.423 1.447-0.813 2.169-1.184-1.252-0.534-2.477-1.006-3.642-1.37-0.272 1.203-0.483 2.514-0.655 3.88zM25.056 6.375c-2.145 0-4.053 2.816-5.28 7.178 1.667 0.491 3.423 1.164 5.212 1.98 1.831-0.839 3.622-1.509 5.327-2.006-1.225-4.339-3.119-7.152-5.259-7.152zM30.705 15.086c-1.2 0.373-2.453 0.836-3.747 1.392 0.727 0.373 1.456 0.766 2.184 1.192 0.784 0.458 1.534 0.934 2.267 1.419-0.172-1.43-0.42-2.75-0.705-4.003zM31.625 21.256c-1.047-0.728-2.153-1.439-3.322-2.119-1.119-0.653-2.228-1.223-3.325-1.756-1.083 0.528-2.181 1.114-3.283 1.756-1.114 0.648-2.178 1.327-3.18 2.017-0.097 1.245-0.162 2.52-0.162 3.847 0 1.341 0.055 2.645 0.152 3.905 0.98 0.673 2.014 1.331 3.095 1.962 1.15 0.67 2.291 1.256 3.419 1.8 1.114-0.541 2.245-1.139 3.378-1.8 1.123-0.655 2.191-1.336 3.202-2.034 0.095-1.241 0.162-2.511 0.162-3.833 0-1.284-0.047-2.536-0.136-3.745zM40.917 34.314c1.066-1.863-0.378-4.906-3.455-8.13-1.252 1.209-2.684 2.409-4.275 3.564-0.2 2.003-0.509 3.905-0.934 5.631 4.291 1.070 7.602 0.794 8.664-1.066zM33.364 27.547c1.077-0.822 2.064-1.656 2.955-2.486-0.894-0.844-1.858-1.692-2.948-2.528 0.039 0.811 0.067 1.631 0.067 2.467-0.002 0.866-0.030 1.712-0.073 2.547zM41.011 15.689c-1.072-1.873-4.422-2.139-8.758-1.041 0.427 1.747 0.756 3.655 0.953 5.689 1.592 1.164 3.016 2.375 4.263 3.592 3.145-3.267 4.62-6.356 3.542-8.241zM25.313 28.222c-1.839 0-3.33-1.505-3.33-3.363 0-1.856 1.491-3.363 3.33-3.363 1.837 0 3.328 1.506 3.328 3.363 0 1.859-1.491 3.363-3.328 3.363z"></path>
</symbol>
<symbol id="icon-lamp" viewBox="0 0 50 50">
<title>lamp</title>
<path d="M27.73 21.902c-1.953 0.878-6.284-1.273-6.284-1.273-5.075-3.042 1.906 9.489 1.906 9.489s0.145 3.911 1.023 4.398c7.323-10.255 5.308-13.494 3.355-12.614zM25.094 31.625c-0.592 0-3.081-7.467-2.787-9.030 1.955 0.195 3.764 0.933 4.839 0.347 3.027-1.372-1.369 8.683-2.052 8.683zM31.175 37.417c0.18-11.414 6.322-15.806 6.322-22.603 0-5.8-3.969-13.203-12.297-13.203-8.327 0-12.697 7.083-12.697 13.256 0 6.931 6.239 11.288 6.239 22.622h6.317c0 0 5.934-0.072 6.116-0.072zM20.014 35.969c0-10.58-6.044-14.645-6.044-21.114 0-5.763 3.922-11.806 11.208-11.806s10.856 6.344 10.856 11.756c0 6.344-5.959 10.534-6.119 21.188-0.159 0-4.861-0.025-4.861-0.025h-5.041zM30.477 39.084h-10.938c-0.431 0-0.781 0.35-0.781 0.781s0.35 0.781 0.781 0.781h10.938c0.43 0 0.781-0.35 0.781-0.781s-0.352-0.781-0.781-0.781zM30.477 42.209h-10.938c-0.431 0-0.781 0.35-0.781 0.781s0.35 0.781 0.781 0.781h10.938c0.43 0 0.781-0.35 0.781-0.781s-0.352-0.781-0.781-0.781zM20.308 45.38c0 0 0 0.522 0 1.406s0.694 1.602 1.55 1.602h6.298c0.858 0 1.55-0.717 1.55-1.602s-0.097-1.406-0.097-1.406h-9.302z"></path>
</symbol>
<symbol id="icon-gears" viewBox="0 0 66 50">
<title>gears</title>
<path d="M5.769 33.938c0.275 0.066 0.648 0.405 0.756 0.714l0.547 1.319c0.123 0.253 0.1 0.755-0.047 0.995l-2.183 3.569c-0.467 0.766-0.37 1.85 0.258 2.553l1.848 1.847c0.644 0.572 1.78 0.675 2.52 0.227l3.569-2.183c0.223-0.138 0.703-0.186 1.039-0.028l1.317 0.544c0.266 0.092 0.605 0.464 0.67 0.739l0.98 4.069c0.208 0.862 1.031 1.572 1.916 1.653 0 0 0.542 0.050 1.355 0.050s1.355-0.050 1.356-0.050c0.883-0.080 1.706-0.791 1.914-1.653l0.981-4.069c0.066-0.273 0.403-0.647 0.712-0.755l1.319-0.547c0.233-0.114 0.772-0.091 0.995 0.047l3.569 2.183c0.314 0.192 0.689 0.294 1.088 0.294 0.539 0 1.061-0.189 1.466-0.55l1.847-1.848c0.597-0.67 0.694-1.755 0.227-2.52l-2.183-3.569c-0.147-0.241-0.17-0.742-0.028-1.039l0.544-1.317c0.092-0.266 0.464-0.605 0.739-0.67l4.069-0.98c0.862-0.208 1.572-1.031 1.653-1.916 0 0 0.050-0.542 0.050-1.355s-0.050-1.355-0.050-1.356c-0.080-0.883-0.791-1.706-1.653-1.916l-4.067-0.978c-0.275-0.066-0.648-0.405-0.756-0.714l-0.547-1.319c-0.123-0.253-0.1-0.755 0.047-0.995l2.183-3.569c0.467-0.766 0.37-1.85-0.258-2.553l-1.848-1.847c-0.645-0.573-1.783-0.677-2.52-0.227l-3.569 2.183c-0.223 0.136-0.705 0.188-1.039 0.028l-1.317-0.544c-0.266-0.092-0.603-0.464-0.669-0.739l-0.981-4.069c-0.208-0.863-1.031-1.572-1.916-1.653-0.003 0.002-0.545-0.048-1.358-0.048s-1.355 0.050-1.356 0.050c-0.883 0.080-1.706 0.791-1.916 1.653l-0.978 4.066c-0.066 0.275-0.405 0.648-0.714 0.756l-1.319 0.547c-0.234 0.114-0.772 0.089-0.995-0.047l-3.567-2.183c-0.739-0.45-1.852-0.372-2.553 0.256l-1.847 1.848c-0.597 0.67-0.694 1.755-0.227 2.52l2.183 3.569c0.147 0.241 0.17 0.742 0.028 1.039l-0.544 1.317c-0.092 0.266-0.464 0.605-0.739 0.67l-4.069 0.98c-0.863 0.208-1.572 1.031-1.653 1.916 0.003 0-0.047 0.542-0.047 1.355s0.050 1.355 0.050 1.356c0.080 0.883 0.791 1.706 1.653 1.916l4.066 0.978zM1.563 29.688c0-0.716 0.042-1.198 0.044-1.214 0.019-0.211 0.258-0.488 0.463-0.538l4.069-0.98c0.789-0.191 1.584-0.912 1.831-1.636l0.506-1.23c0.356-0.73 0.306-1.802-0.117-2.495l-2.183-3.567c-0.105-0.173-0.075-0.517 0.028-0.634l1.783-1.784c0.142-0.127 0.505-0.158 0.667-0.059l3.569 2.183c0.677 0.414 1.836 0.442 2.45 0.137l1.231-0.509c0.767-0.264 1.489-1.059 1.68-1.85l0.978-4.067c0.050-0.206 0.327-0.445 0.537-0.464 0.016 0 0.498-0.042 1.214-0.042s1.198 0.042 1.214 0.044c0.211 0.019 0.487 0.258 0.537 0.463l0.98 4.067c0.191 0.789 0.911 1.586 1.636 1.833l1.23 0.506c0.714 0.35 1.82 0.295 2.495-0.117l3.567-2.183c0.162-0.098 0.547-0.047 0.634 0.028l1.784 1.783c0.134 0.152 0.164 0.494 0.059 0.667l-2.183 3.569c-0.423 0.692-0.473 1.766-0.138 2.45l0.509 1.231c0.264 0.767 1.059 1.489 1.85 1.68l4.067 0.978c0.206 0.050 0.445 0.327 0.464 0.538 0 0.016 0.042 0.498 0.042 1.214s-0.042 1.198-0.044 1.214c-0.019 0.211-0.258 0.488-0.462 0.538l-4.069 0.98c-0.789 0.191-1.584 0.913-1.831 1.636l-0.506 1.23c-0.356 0.73-0.306 1.802 0.117 2.495l2.183 3.567c0.105 0.173 0.075 0.517-0.028 0.634l-1.783 1.784c-0.084 0.075-0.237 0.123-0.392 0.123-0.108 0-0.208-0.023-0.273-0.064l-3.569-2.183c-0.675-0.413-1.834-0.442-2.45-0.138l-1.231 0.509c-0.767 0.264-1.489 1.061-1.678 1.85l-0.98 4.067c-0.050 0.206-0.327 0.445-0.538 0.464-0.017 0-0.5 0.042-1.216 0.042s-1.198-0.042-1.214-0.044c-0.211-0.019-0.488-0.258-0.538-0.462l-0.98-4.069c-0.191-0.789-0.912-1.584-1.636-1.831l-1.23-0.506c-0.319-0.156-0.705-0.238-1.117-0.238-0.514 0-1.003 0.127-1.378 0.356l-3.567 2.183c-0.163 0.098-0.548 0.045-0.634-0.028l-1.784-1.784c-0.134-0.152-0.164-0.494-0.059-0.667l2.183-3.569c0.423-0.692 0.473-1.766 0.138-2.45l-0.509-1.231c-0.264-0.767-1.059-1.489-1.85-1.68l-4.067-0.978c-0.206-0.050-0.445-0.327-0.464-0.538 0-0.016-0.042-0.498-0.042-1.214zM20.313 38.281c4.739 0 8.594-3.855 8.594-8.594s-3.855-8.594-8.594-8.594-8.594 3.855-8.594 8.594 3.855 8.594 8.594 8.594zM20.313 22.656c3.877 0 7.031 3.155 7.031 7.031s-3.155 7.031-7.031 7.031-7.031-3.155-7.031-7.031 3.155-7.031 7.031-7.031zM42.933 8.303c-0.062 0.095-0.289 0.216-0.405 0.216l-2.908-0.028c-0.706 0-1.414 0.502-1.645 1.166 0 0-0.128 0.364-0.269 0.922s-0.2 0.939-0.2 0.939c-0.109 0.705 0.283 1.484 0.913 1.814l2.564 1.344c0.098 0.052 0.244 0.269 0.259 0.427l0.145 0.992c0.023 0.109-0.052 0.359-0.131 0.437l-2.066 2.025c-0.517 0.506-0.653 1.372-0.297 2.052l0.936 1.563c0.395 0.581 1.252 0.878 1.923 0.669l2.85-0.872c0.155 0 0.309 0.059 0.397 0.13l0.805 0.594c0.094 0.063 0.217 0.292 0.216 0.405l-0.028 2.894c-0.006 0.712 0.494 1.427 1.166 1.661 0 0 0.364 0.128 0.922 0.269s0.939 0.2 0.939 0.2c0.041 0.006 0.203 0.019 0.244 0.019 0.638 0 1.284-0.383 1.57-0.931l1.344-2.564c0.052-0.098 0.269-0.244 0.427-0.259l1.036-0.15c0.156 0 0.341 0.081 0.392 0.134l2.025 2.066c0.492 0.503 1.322 0.683 2.052 0.297l1.561-0.936c0.597-0.406 0.886-1.234 0.67-1.923l-0.862-2.761c-0.033-0.106 0.019-0.363 0.122-0.486l0.594-0.805c0.063-0.095 0.289-0.216 0.405-0.216l2.908 0.028c0.706 0 1.414-0.502 1.645-1.166 0 0 0.128-0.364 0.269-0.922s0.2-0.939 0.2-0.939c0.109-0.705-0.283-1.484-0.913-1.814l-2.564-1.344c-0.098-0.052-0.244-0.269-0.259-0.427l-0.144-0.989c-0.023-0.109 0.052-0.359 0.131-0.438l2.066-2.025c0.517-0.506 0.653-1.372 0.297-2.052l-0.936-1.563c-0.395-0.58-1.25-0.88-1.923-0.67l-2.852 0.872c-0.155 0-0.309-0.059-0.397-0.13l-0.805-0.594c-0.094-0.063-0.217-0.292-0.216-0.405l0.028-2.894c0.006-0.712-0.494-1.427-1.166-1.661 0 0-0.364-0.128-0.922-0.269s-0.939-0.2-0.939-0.2c-0.041-0.005-0.203-0.017-0.244-0.017-0.638 0-1.284 0.383-1.57 0.931l-1.344 2.564c-0.052 0.098-0.269 0.244-0.427 0.259l-1.036 0.148c-0.156 0-0.341-0.081-0.392-0.134l-2.025-2.066c-0.491-0.502-1.319-0.683-2.052-0.297l-1.563 0.934c-0.597 0.406-0.886 1.234-0.67 1.923l0.862 2.761c0.033 0.106-0.019 0.363-0.122 0.486l-0.592 0.805zM44.214 9.197l0.536-0.728c0.419-0.495 0.581-1.303 0.388-1.92l-0.861-2.759c-0.008-0.044 0.027-0.142 0.019-0.144l1.481-0.888 0.177 0.027 2.027 2.066c0.359 0.366 0.952 0.603 1.508 0.603 0.128 0 0.252-0.013 0.319-0.030l0.898-0.133c0.644-0.056 1.33-0.513 1.63-1.084l1.342-2.563c0.025-0.039 0.123-0.095 0.187-0.095 0.017 0.002 0.336 0.055 0.802 0.17 0.464 0.117 0.77 0.222 0.784 0.228 0.048 0.020 0.119 0.122 0.122 0.172l-0.028 2.894c-0.006 0.647 0.383 1.373 0.886 1.702l0.727 0.536c0.483 0.408 1.311 0.58 1.92 0.388l2.772-0.863c0.066 0 0.139 0.041 0.13 0.020l0.887 1.481c0.017 0.041 0 0.144-0.027 0.177l-2.066 2.027c-0.461 0.455-0.7 1.242-0.573 1.827l0.131 0.898c0.056 0.644 0.513 1.33 1.086 1.63l2.563 1.342c0.044 0.028 0.098 0.137 0.095 0.188-0.002 0.017-0.055 0.336-0.17 0.802-0.117 0.464-0.222 0.77-0.228 0.784-0.020 0.048-0.122 0.119-0.172 0.122l-2.909-0.028c-0.642 0-1.361 0.389-1.686 0.886l-0.534 0.727c-0.419 0.495-0.581 1.303-0.387 1.92l0.861 2.759c0.008 0.042-0.027 0.142-0.019 0.144l-1.481 0.888-0.177-0.027-2.027-2.066c-0.359-0.366-0.952-0.603-1.508-0.603-0.128 0-0.252 0.012-0.319 0.030l-0.898 0.133c-0.644 0.056-1.33 0.512-1.63 1.084l-1.342 2.563c-0.025 0.039-0.123 0.095-0.188 0.095v0c-0.017-0.002-0.336-0.055-0.802-0.17-0.464-0.117-0.77-0.222-0.784-0.228-0.048-0.020-0.119-0.122-0.122-0.172l0.028-2.894c0.006-0.647-0.383-1.373-0.886-1.702l-0.727-0.536c-0.347-0.294-0.858-0.469-1.367-0.469-0.197 0-0.384 0.028-0.555 0.081l-2.772 0.862c-0.067 0-0.141-0.036-0.13-0.020l-0.888-1.481c-0.017-0.041 0-0.144 0.027-0.177l2.066-2.027c0.461-0.455 0.7-1.242 0.573-1.827l-0.131-0.897c-0.056-0.644-0.512-1.33-1.086-1.63l-2.563-1.342c-0.044-0.028-0.098-0.137-0.095-0.188 0.002-0.017 0.055-0.336 0.17-0.802 0.117-0.464 0.222-0.77 0.228-0.784 0.020-0.048 0.122-0.119 0.172-0.122l2.909 0.028c0.642 0 1.361-0.389 1.686-0.886zM51.563 18.75c2.584 0 4.688-2.103 4.688-4.688s-2.103-4.688-4.688-4.688-4.688 2.103-4.688 4.688 2.103 4.688 4.688 4.688zM51.563 10.938c1.723 0 3.125 1.402 3.125 3.125s-1.402 3.125-3.125 3.125-3.125-1.402-3.125-3.125 1.402-3.125 3.125-3.125z"></path>
</symbol>
<symbol id="icon-lightbulb" viewBox="0 0 34 50">
<title>lightbulb</title>
<path d="M17.188 0c-8.266 0-17.188 6.572-17.188 17.188 0 5.239 2.084 9.647 6.087 12.987 0.042 0.053 0.091 0.098 0.144 0.137 2.97 3.222 3.12 3.834 3.141 5.252 0.009 0.561 0.005 0.727 0 0.817l-0.006 0.327c-0.023 0.706-0.059 1.889 1.405 2.336l12.647 2.783c0.056 0.013 0.112 0.019 0.167 0.019 0.359 0 0.683-0.248 0.762-0.614 0.094-0.422-0.173-0.839-0.595-0.931l-12.586-2.767c-0.242-0.073-0.262-0.080-0.241-0.778l0.005-0.298c0 0 0.016-0.122 0.003-0.916-0.030-1.983-0.461-2.941-3.608-6.342-0.061-0.075-0.134-0.138-0.216-0.184-3.681-3.13-5.547-7.108-5.547-11.827 0-9.652 8.109-15.625 15.625-15.625 7.681 0 15.625 5.845 15.625 15.625 0 6.216-3.012 9.642-5.497 11.798-0.086 0.041-0.162 0.098-0.23 0.17-3.183 3.444-3.614 4.402-3.644 6.384 0 0.047-0.002 0.102 0 0.161l-0.002 0.055c-0.005 0.119-0.022 0.184-0.020 0.209-0.053-0.008-0.183-0.028-0.183-0.028l-6.555-1.542c-0.425-0.097-0.841 0.162-0.939 0.581-0.098 0.42 0.161 0.841 0.581 0.941l6.475 1.519c0.086 0.031 0.864 0.284 1.52-0.177 0.286-0.202 0.619-0.597 0.678-1.353l0.005-0.073c0.002-0.050 0.003-0.102 0.003-0.155 0-0.014 0-0.028-0.002-0.041l0.002-0.072c0.020-1.409 0.167-2.022 3.133-5.244 0.014-0.011 0.030-0.022 0.042-0.034 4.167-3.502 6.194-7.788 6.194-13.1 0-10.758-8.739-17.188-17.187-17.188zM23.438 46.094c0.358 0 0.68-0.245 0.761-0.609 0.097-0.42-0.167-0.839-0.589-0.934l-12.5-2.834c-0.423-0.094-0.839 0.169-0.934 0.589-0.097 0.42 0.167 0.839 0.589 0.934l12.5 2.834c0.059 0.014 0.117 0.020 0.173 0.020zM11.889 46.178c-0.423-0.094-0.837 0.17-0.934 0.591-0.094 0.422 0.17 0.839 0.592 0.933l10.156 2.278c0.059 0.014 0.116 0.020 0.172 0.020 0.358 0 0.681-0.247 0.762-0.611 0.094-0.422-0.17-0.839-0.592-0.933l-10.156-2.278z"></path>
</symbol>
<symbol id="icon-arrow-up-circle" viewBox="0 0 50 50">
<title>arrow-up-circle</title>
<path d="M25 2.083c-12.708 0-22.917 10.208-22.917 22.917s10.208 22.917 22.917 22.917 22.917-10.208 22.917-22.917-10.208-22.917-22.917-22.917zM25 43.75c-10.417 0-18.75-8.333-18.75-18.75s8.333-18.75 18.75-18.75c10.417 0 18.75 8.333 18.75 18.75s-8.333 18.75-18.75 18.75z"></path>
<path d="M26.458 15.208c-0.208-0.208-0.417-0.417-0.625-0.417-0.417-0.208-1.042-0.208-1.667 0-0.208 0.208-0.417 0.208-0.625 0.417l-8.333 8.333c-0.833 0.833-0.833 2.083 0 2.917s2.083 0.833 2.917 0l4.792-4.792v11.667c0 1.25 0.833 2.083 2.083 2.083s2.083-0.833 2.083-2.083v-11.667l4.792 4.792c0.417 0.417 1.042 0.625 1.458 0.625s1.042-0.208 1.458-0.625c0.833-0.833 0.833-2.083 0-2.917l-8.333-8.333z"></path>
</symbol>
<symbol id="icon-phone-portrait" viewBox="0 0 50 50">
<title>phone-portrait</title>
<path d="M43.75 18.75h-14.583v4.167h14.583v16.667h-14.583c0 2.292-2.083 4.167-2.083 4.167h16.667c2.292 0 4.167-1.875 4.167-4.167v-16.667c0-2.292-1.875-4.167-4.167-4.167zM20.833 6.25h-16.667c-2.292 0-4.167 1.875-4.167 4.167v29.167c0 2.292 1.875 4.167 4.167 4.167h16.667c2.292 0 4.167-1.875 4.167-4.167v-29.167c0-2.292-1.875-4.167-4.167-4.167zM14.583 41.667h-4.167v-4.167h4.167v4.167zM20.833 35.417h-16.667v-25h16.667v25z"></path>
</symbol>
<symbol id="icon-contact_mail" viewBox="0 0 50 50">
<title>contact_mail</title>
<path d="M45.801 25v-12.5h-16.602v12.5h16.602zM29.199 37.5v-2.051c0-4.199-8.301-6.445-12.5-6.445s-12.5 2.246-12.5 6.445v2.051h25zM16.699 12.5c-3.418 0-6.25 2.832-6.25 6.25s2.832 6.25 6.25 6.25 6.25-2.832 6.25-6.25-2.832-6.25-6.25-6.25zM45.801 6.25c2.246 0 4.199 1.953 4.199 4.199v29.102c0 2.246-1.953 4.199-4.199 4.199h-41.602c-2.246 0-4.199-1.953-4.199-4.199v-29.102c0-2.246 1.953-4.199 4.199-4.199h41.602zM43.75 16.699l-6.25 4.102-6.25-4.102v-2.148l6.25 4.199 6.25-4.199v2.148z"></path>
</symbol>
<symbol id="icon-phonelink" viewBox="0 0 50 50">
<title>phonelink</title>
<path d="M45.801 35.449v-14.648h-8.301v14.648h8.301zM47.949 16.699c1.172 0 2.051 0.879 2.051 2.051v20.801c0 1.172-0.879 2.148-2.051 2.148h-12.5c-1.172 0-2.148-0.977-2.148-2.148v-20.801c0-1.172 0.977-2.051 2.148-2.051h12.5zM8.301 12.5v22.949h20.898v6.25h-29.199v-6.25h4.199v-22.949c0-2.246 1.855-4.199 4.102-4.199h37.5v4.199h-37.5z"></path>
</symbol>
<symbol id="icon-cogs" viewBox="0 0 54 50">
<title>cogs</title>
<path d="M25 25c0-3.934-3.209-7.143-7.143-7.143s-7.143 3.209-7.143 7.143 3.209 7.143 7.143 7.143 7.143-3.209 7.143-7.143zM46.429 39.286c0-1.953-1.618-3.571-3.571-3.571s-3.571 1.618-3.571 3.571c0 1.981 1.618 3.571 3.571 3.571 1.981 0 3.571-1.618 3.571-3.571zM46.429 10.714c0-1.953-1.618-3.571-3.571-3.571s-3.571 1.618-3.571 3.571c0 1.981 1.618 3.571 3.571 3.571 1.981 0 3.571-1.618 3.571-3.571zM35.714 22.461v5.162c0 0.363-0.279 0.781-0.642 0.837l-4.325 0.67c-0.223 0.725-0.53 1.423-0.893 2.121 0.781 1.116 1.618 2.148 2.511 3.209 0.112 0.167 0.195 0.335 0.195 0.558 0 0.195-0.056 0.391-0.195 0.53-0.558 0.753-3.683 4.157-4.492 4.157-0.223 0-0.419-0.084-0.586-0.195l-3.209-2.511c-0.698 0.363-1.395 0.642-2.148 0.865-0.14 1.423-0.279 2.958-0.642 4.325-0.112 0.391-0.446 0.67-0.837 0.67h-5.19c-0.391 0-0.781-0.307-0.837-0.698l-0.642-4.269c-0.725-0.223-1.423-0.53-2.093-0.865l-3.292 2.483c-0.14 0.14-0.363 0.195-0.558 0.195-0.223 0-0.419-0.084-0.586-0.223-0.725-0.67-4.018-3.655-4.018-4.464 0-0.195 0.084-0.363 0.195-0.53 0.809-1.060 1.646-2.093 2.455-3.181-0.391-0.753-0.725-1.507-0.977-2.288l-4.241-0.67c-0.391-0.056-0.67-0.419-0.67-0.809v-5.162c0-0.363 0.279-0.781 0.642-0.837l4.325-0.67c0.223-0.725 0.53-1.423 0.893-2.121-0.781-1.116-1.618-2.148-2.511-3.209-0.112-0.167-0.195-0.363-0.195-0.558s0.056-0.391 0.195-0.558c0.558-0.753 3.683-4.129 4.492-4.129 0.223 0 0.419 0.084 0.586 0.195l3.209 2.511c0.698-0.363 1.395-0.642 2.148-0.893 0.14-1.395 0.279-2.93 0.642-4.297 0.112-0.391 0.446-0.67 0.837-0.67h5.19c0.391 0 0.781 0.307 0.837 0.698l0.642 4.269c0.725 0.223 1.423 0.53 2.093 0.865l3.292-2.483c0.167-0.14 0.363-0.195 0.558-0.195 0.223 0 0.419 0.084 0.586 0.223 0.725 0.67 4.018 3.683 4.018 4.464 0 0.195-0.084 0.363-0.195 0.53-0.809 1.088-1.646 2.093-2.427 3.181 0.363 0.753 0.698 1.507 0.949 2.288l4.241 0.642c0.391 0.084 0.67 0.446 0.67 0.837zM53.571 37.333v3.906c0 0.419-3.599 0.809-4.157 0.865-0.223 0.53-0.502 1.004-0.837 1.451 0.251 0.558 1.423 3.348 1.423 3.85 0 0.084-0.028 0.14-0.112 0.195-0.335 0.195-3.32 1.981-3.46 1.981-0.363 0-2.455-2.79-2.734-3.209-0.279 0.028-0.558 0.056-0.837 0.056s-0.558-0.028-0.837-0.056c-0.279 0.419-2.372 3.209-2.734 3.209-0.14 0-3.125-1.786-3.46-1.981-0.084-0.056-0.112-0.14-0.112-0.195 0-0.474 1.172-3.292 1.423-3.85-0.335-0.446-0.614-0.921-0.837-1.451-0.558-0.056-4.157-0.446-4.157-0.865v-3.906c0-0.419 3.599-0.809 4.157-0.865 0.223-0.502 0.502-1.004 0.837-1.451-0.251-0.558-1.423-3.376-1.423-3.85 0-0.056 0.028-0.14 0.112-0.195 0.335-0.167 3.32-1.953 3.46-1.953 0.363 0 2.455 2.762 2.734 3.181 0.279-0.028 0.558-0.056 0.837-0.056s0.558 0.028 0.837 0.056c0.781-1.088 1.618-2.176 2.567-3.125l0.167-0.056c0.14 0 3.125 1.758 3.46 1.953 0.084 0.056 0.112 0.14 0.112 0.195 0 0.502-1.172 3.292-1.423 3.85 0.335 0.446 0.614 0.949 0.837 1.451 0.558 0.056 4.157 0.446 4.157 0.865zM53.571 8.761v3.906c0 0.419-3.599 0.809-4.157 0.865-0.223 0.53-0.502 1.004-0.837 1.451 0.251 0.558 1.423 3.348 1.423 3.85 0 0.084-0.028 0.14-0.112 0.195-0.335 0.195-3.32 1.981-3.46 1.981-0.363 0-2.455-2.79-2.734-3.209-0.279 0.028-0.558 0.056-0.837 0.056s-0.558-0.028-0.837-0.056c-0.279 0.419-2.372 3.209-2.734 3.209-0.14 0-3.125-1.786-3.46-1.981-0.084-0.056-0.112-0.14-0.112-0.195 0-0.474 1.172-3.292 1.423-3.85-0.335-0.446-0.614-0.921-0.837-1.451-0.558-0.056-4.157-0.446-4.157-0.865v-3.906c0-0.419 3.599-0.809 4.157-0.865 0.223-0.502 0.502-1.004 0.837-1.451-0.251-0.558-1.423-3.376-1.423-3.85 0-0.056 0.028-0.14 0.112-0.195 0.335-0.167 3.32-1.953 3.46-1.953 0.363 0 2.455 2.762 2.734 3.181 0.279-0.028 0.558-0.056 0.837-0.056s0.558 0.028 0.837 0.056c0.781-1.088 1.618-2.176 2.567-3.125l0.167-0.056c0.14 0 3.125 1.758 3.46 1.953 0.084 0.056 0.112 0.14 0.112 0.195 0 0.502-1.172 3.292-1.423 3.85 0.335 0.446 0.614 0.949 0.837 1.451 0.558 0.056 4.157 0.446 4.157 0.865z"></path>
</symbol>
<symbol id="icon-lamp" viewBox="0 0 50 50">
<title>lamp</title>
<path d="M27.73 21.902c-1.953 0.878-6.284-1.273-6.284-1.273-5.075-3.042 1.906 9.489 1.906 9.489s0.145 3.911 1.023 4.398c7.323-10.255 5.308-13.494 3.355-12.614zM25.094 31.625c-0.592 0-3.081-7.467-2.787-9.030 1.955 0.195 3.764 0.933 4.839 0.347 3.027-1.372-1.369 8.683-2.052 8.683zM31.175 37.417c0.18-11.414 6.322-15.806 6.322-22.603 0-5.8-3.969-13.203-12.297-13.203-8.327 0-12.697 7.083-12.697 13.256 0 6.931 6.239 11.288 6.239 22.622h6.317c0 0 5.934-0.072 6.116-0.072zM20.014 35.969c0-10.58-6.044-14.645-6.044-21.114 0-5.763 3.922-11.806 11.208-11.806s10.856 6.344 10.856 11.756c0 6.344-5.959 10.534-6.119 21.188-0.159 0-4.861-0.025-4.861-0.025h-5.041zM30.477 39.084h-10.938c-0.431 0-0.781 0.35-0.781 0.781s0.35 0.781 0.781 0.781h10.938c0.43 0 0.781-0.35 0.781-0.781s-0.352-0.781-0.781-0.781zM30.477 42.209h-10.938c-0.431 0-0.781 0.35-0.781 0.781s0.35 0.781 0.781 0.781h10.938c0.43 0 0.781-0.35 0.781-0.781s-0.352-0.781-0.781-0.781zM20.308 45.38c0 0 0 0.522 0 1.406s0.694 1.602 1.55 1.602h6.298c0.858 0 1.55-0.717 1.55-1.602s-0.097-1.406-0.097-1.406h-9.302z"></path>
</symbol>
<symbol id="icon-gears" viewBox="0 0 66 50">
<title>gears</title>
<path d="M5.769 33.938c0.275 0.066 0.648 0.405 0.756 0.714l0.547 1.319c0.123 0.253 0.1 0.755-0.047 0.995l-2.183 3.569c-0.467 0.766-0.37 1.85 0.258 2.553l1.848 1.847c0.644 0.572 1.78 0.675 2.52 0.227l3.569-2.183c0.223-0.138 0.703-0.186 1.039-0.028l1.317 0.544c0.266 0.092 0.605 0.464 0.67 0.739l0.98 4.069c0.208 0.862 1.031 1.572 1.916 1.653 0 0 0.542 0.050 1.355 0.050s1.355-0.050 1.356-0.050c0.883-0.080 1.706-0.791 1.914-1.653l0.981-4.069c0.066-0.273 0.403-0.647 0.712-0.755l1.319-0.547c0.233-0.114 0.772-0.091 0.995 0.047l3.569 2.183c0.314 0.192 0.689 0.294 1.088 0.294 0.539 0 1.061-0.189 1.466-0.55l1.847-1.848c0.597-0.67 0.694-1.755 0.227-2.52l-2.183-3.569c-0.147-0.241-0.17-0.742-0.028-1.039l0.544-1.317c0.092-0.266 0.464-0.605 0.739-0.67l4.069-0.98c0.862-0.208 1.572-1.031 1.653-1.916 0 0 0.050-0.542 0.050-1.355s-0.050-1.355-0.050-1.356c-0.080-0.883-0.791-1.706-1.653-1.916l-4.067-0.978c-0.275-0.066-0.648-0.405-0.756-0.714l-0.547-1.319c-0.123-0.253-0.1-0.755 0.047-0.995l2.183-3.569c0.467-0.766 0.37-1.85-0.258-2.553l-1.848-1.847c-0.645-0.573-1.783-0.677-2.52-0.227l-3.569 2.183c-0.223 0.136-0.705 0.188-1.039 0.028l-1.317-0.544c-0.266-0.092-0.603-0.464-0.669-0.739l-0.981-4.069c-0.208-0.863-1.031-1.572-1.916-1.653-0.003 0.002-0.545-0.048-1.358-0.048s-1.355 0.050-1.356 0.050c-0.883 0.080-1.706 0.791-1.916 1.653l-0.978 4.066c-0.066 0.275-0.405 0.648-0.714 0.756l-1.319 0.547c-0.234 0.114-0.772 0.089-0.995-0.047l-3.567-2.183c-0.739-0.45-1.852-0.372-2.553 0.256l-1.847 1.848c-0.597 0.67-0.694 1.755-0.227 2.52l2.183 3.569c0.147 0.241 0.17 0.742 0.028 1.039l-0.544 1.317c-0.092 0.266-0.464 0.605-0.739 0.67l-4.069 0.98c-0.863 0.208-1.572 1.031-1.653 1.916 0.003 0-0.047 0.542-0.047 1.355s0.050 1.355 0.050 1.356c0.080 0.883 0.791 1.706 1.653 1.916l4.066 0.978zM1.563 29.688c0-0.716 0.042-1.198 0.044-1.214 0.019-0.211 0.258-0.488 0.463-0.538l4.069-0.98c0.789-0.191 1.584-0.912 1.831-1.636l0.506-1.23c0.356-0.73 0.306-1.802-0.117-2.495l-2.183-3.567c-0.105-0.173-0.075-0.517 0.028-0.634l1.783-1.784c0.142-0.127 0.505-0.158 0.667-0.059l3.569 2.183c0.677 0.414 1.836 0.442 2.45 0.137l1.231-0.509c0.767-0.264 1.489-1.059 1.68-1.85l0.978-4.067c0.050-0.206 0.327-0.445 0.537-0.464 0.016 0 0.498-0.042 1.214-0.042s1.198 0.042 1.214 0.044c0.211 0.019 0.487 0.258 0.537 0.463l0.98 4.067c0.191 0.789 0.911 1.586 1.636 1.833l1.23 0.506c0.714 0.35 1.82 0.295 2.495-0.117l3.567-2.183c0.162-0.098 0.547-0.047 0.634 0.028l1.784 1.783c0.134 0.152 0.164 0.494 0.059 0.667l-2.183 3.569c-0.423 0.692-0.473 1.766-0.138 2.45l0.509 1.231c0.264 0.767 1.059 1.489 1.85 1.68l4.067 0.978c0.206 0.050 0.445 0.327 0.464 0.538 0 0.016 0.042 0.498 0.042 1.214s-0.042 1.198-0.044 1.214c-0.019 0.211-0.258 0.488-0.462 0.538l-4.069 0.98c-0.789 0.191-1.584 0.913-1.831 1.636l-0.506 1.23c-0.356 0.73-0.306 1.802 0.117 2.495l2.183 3.567c0.105 0.173 0.075 0.517-0.028 0.634l-1.783 1.784c-0.084 0.075-0.237 0.123-0.392 0.123-0.108 0-0.208-0.023-0.273-0.064l-3.569-2.183c-0.675-0.413-1.834-0.442-2.45-0.138l-1.231 0.509c-0.767 0.264-1.489 1.061-1.678 1.85l-0.98 4.067c-0.050 0.206-0.327 0.445-0.538 0.464-0.017 0-0.5 0.042-1.216 0.042s-1.198-0.042-1.214-0.044c-0.211-0.019-0.488-0.258-0.538-0.462l-0.98-4.069c-0.191-0.789-0.912-1.584-1.636-1.831l-1.23-0.506c-0.319-0.156-0.705-0.238-1.117-0.238-0.514 0-1.003 0.127-1.378 0.356l-3.567 2.183c-0.163 0.098-0.548 0.045-0.634-0.028l-1.784-1.784c-0.134-0.152-0.164-0.494-0.059-0.667l2.183-3.569c0.423-0.692 0.473-1.766 0.138-2.45l-0.509-1.231c-0.264-0.767-1.059-1.489-1.85-1.68l-4.067-0.978c-0.206-0.050-0.445-0.327-0.464-0.538 0-0.016-0.042-0.498-0.042-1.214zM20.313 38.281c4.739 0 8.594-3.855 8.594-8.594s-3.855-8.594-8.594-8.594-8.594 3.855-8.594 8.594 3.855 8.594 8.594 8.594zM20.313 22.656c3.877 0 7.031 3.155 7.031 7.031s-3.155 7.031-7.031 7.031-7.031-3.155-7.031-7.031 3.155-7.031 7.031-7.031zM42.933 8.303c-0.062 0.095-0.289 0.216-0.405 0.216l-2.908-0.028c-0.706 0-1.414 0.502-1.645 1.166 0 0-0.128 0.364-0.269 0.922s-0.2 0.939-0.2 0.939c-0.109 0.705 0.283 1.484 0.913 1.814l2.564 1.344c0.098 0.052 0.244 0.269 0.259 0.427l0.145 0.992c0.023 0.109-0.052 0.359-0.131 0.437l-2.066 2.025c-0.517 0.506-0.653 1.372-0.297 2.052l0.936 1.563c0.395 0.581 1.252 0.878 1.923 0.669l2.85-0.872c0.155 0 0.309 0.059 0.397 0.13l0.805 0.594c0.094 0.063 0.217 0.292 0.216 0.405l-0.028 2.894c-0.006 0.712 0.494 1.427 1.166 1.661 0 0 0.364 0.128 0.922 0.269s0.939 0.2 0.939 0.2c0.041 0.006 0.203 0.019 0.244 0.019 0.638 0 1.284-0.383 1.57-0.931l1.344-2.564c0.052-0.098 0.269-0.244 0.427-0.259l1.036-0.15c0.156 0 0.341 0.081 0.392 0.134l2.025 2.066c0.492 0.503 1.322 0.683 2.052 0.297l1.561-0.936c0.597-0.406 0.886-1.234 0.67-1.923l-0.862-2.761c-0.033-0.106 0.019-0.363 0.122-0.486l0.594-0.805c0.063-0.095 0.289-0.216 0.405-0.216l2.908 0.028c0.706 0 1.414-0.502 1.645-1.166 0 0 0.128-0.364 0.269-0.922s0.2-0.939 0.2-0.939c0.109-0.705-0.283-1.484-0.913-1.814l-2.564-1.344c-0.098-0.052-0.244-0.269-0.259-0.427l-0.144-0.989c-0.023-0.109 0.052-0.359 0.131-0.438l2.066-2.025c0.517-0.506 0.653-1.372 0.297-2.052l-0.936-1.563c-0.395-0.58-1.25-0.88-1.923-0.67l-2.852 0.872c-0.155 0-0.309-0.059-0.397-0.13l-0.805-0.594c-0.094-0.063-0.217-0.292-0.216-0.405l0.028-2.894c0.006-0.712-0.494-1.427-1.166-1.661 0 0-0.364-0.128-0.922-0.269s-0.939-0.2-0.939-0.2c-0.041-0.005-0.203-0.017-0.244-0.017-0.638 0-1.284 0.383-1.57 0.931l-1.344 2.564c-0.052 0.098-0.269 0.244-0.427 0.259l-1.036 0.148c-0.156 0-0.341-0.081-0.392-0.134l-2.025-2.066c-0.491-0.502-1.319-0.683-2.052-0.297l-1.563 0.934c-0.597 0.406-0.886 1.234-0.67 1.923l0.862 2.761c0.033 0.106-0.019 0.363-0.122 0.486l-0.592 0.805zM44.214 9.197l0.536-0.728c0.419-0.495 0.581-1.303 0.388-1.92l-0.861-2.759c-0.008-0.044 0.027-0.142 0.019-0.144l1.481-0.888 0.177 0.027 2.027 2.066c0.359 0.366 0.952 0.603 1.508 0.603 0.128 0 0.252-0.013 0.319-0.030l0.898-0.133c0.644-0.056 1.33-0.513 1.63-1.084l1.342-2.563c0.025-0.039 0.123-0.095 0.187-0.095 0.017 0.002 0.336 0.055 0.802 0.17 0.464 0.117 0.77 0.222 0.784 0.228 0.048 0.020 0.119 0.122 0.122 0.172l-0.028 2.894c-0.006 0.647 0.383 1.373 0.886 1.702l0.727 0.536c0.483 0.408 1.311 0.58 1.92 0.388l2.772-0.863c0.066 0 0.139 0.041 0.13 0.020l0.887 1.481c0.017 0.041 0 0.144-0.027 0.177l-2.066 2.027c-0.461 0.455-0.7 1.242-0.573 1.827l0.131 0.898c0.056 0.644 0.513 1.33 1.086 1.63l2.563 1.342c0.044 0.028 0.098 0.137 0.095 0.188-0.002 0.017-0.055 0.336-0.17 0.802-0.117 0.464-0.222 0.77-0.228 0.784-0.020 0.048-0.122 0.119-0.172 0.122l-2.909-0.028c-0.642 0-1.361 0.389-1.686 0.886l-0.534 0.727c-0.419 0.495-0.581 1.303-0.387 1.92l0.861 2.759c0.008 0.042-0.027 0.142-0.019 0.144l-1.481 0.888-0.177-0.027-2.027-2.066c-0.359-0.366-0.952-0.603-1.508-0.603-0.128 0-0.252 0.012-0.319 0.030l-0.898 0.133c-0.644 0.056-1.33 0.512-1.63 1.084l-1.342 2.563c-0.025 0.039-0.123 0.095-0.188 0.095v0c-0.017-0.002-0.336-0.055-0.802-0.17-0.464-0.117-0.77-0.222-0.784-0.228-0.048-0.020-0.119-0.122-0.122-0.172l0.028-2.894c0.006-0.647-0.383-1.373-0.886-1.702l-0.727-0.536c-0.347-0.294-0.858-0.469-1.367-0.469-0.197 0-0.384 0.028-0.555 0.081l-2.772 0.862c-0.067 0-0.141-0.036-0.13-0.020l-0.888-1.481c-0.017-0.041 0-0.144 0.027-0.177l2.066-2.027c0.461-0.455 0.7-1.242 0.573-1.827l-0.131-0.897c-0.056-0.644-0.512-1.33-1.086-1.63l-2.563-1.342c-0.044-0.028-0.098-0.137-0.095-0.188 0.002-0.017 0.055-0.336 0.17-0.802 0.117-0.464 0.222-0.77 0.228-0.784 0.020-0.048 0.122-0.119 0.172-0.122l2.909 0.028c0.642 0 1.361-0.389 1.686-0.886zM51.563 18.75c2.584 0 4.688-2.103 4.688-4.688s-2.103-4.688-4.688-4.688-4.688 2.103-4.688 4.688 2.103 4.688 4.688 4.688zM51.563 10.938c1.723 0 3.125 1.402 3.125 3.125s-1.402 3.125-3.125 3.125-3.125-1.402-3.125-3.125 1.402-3.125 3.125-3.125z"></path>
</symbol>
<symbol id="icon-lightbulb" viewBox="0 0 34 50">
<title>lightbulb</title>
<path d="M17.188 0c-8.266 0-17.188 6.572-17.188 17.188 0 5.239 2.084 9.647 6.087 12.987 0.042 0.053 0.091 0.098 0.144 0.137 2.97 3.222 3.12 3.834 3.141 5.252 0.009 0.561 0.005 0.727 0 0.817l-0.006 0.327c-0.023 0.706-0.059 1.889 1.405 2.336l12.647 2.783c0.056 0.013 0.112 0.019 0.167 0.019 0.359 0 0.683-0.248 0.762-0.614 0.094-0.422-0.173-0.839-0.595-0.931l-12.586-2.767c-0.242-0.073-0.262-0.080-0.241-0.778l0.005-0.298c0 0 0.016-0.122 0.003-0.916-0.030-1.983-0.461-2.941-3.608-6.342-0.061-0.075-0.134-0.138-0.216-0.184-3.681-3.13-5.547-7.108-5.547-11.827 0-9.652 8.109-15.625 15.625-15.625 7.681 0 15.625 5.845 15.625 15.625 0 6.216-3.012 9.642-5.497 11.798-0.086 0.041-0.162 0.098-0.23 0.17-3.183 3.444-3.614 4.402-3.644 6.384 0 0.047-0.002 0.102 0 0.161l-0.002 0.055c-0.005 0.119-0.022 0.184-0.020 0.209-0.053-0.008-0.183-0.028-0.183-0.028l-6.555-1.542c-0.425-0.097-0.841 0.162-0.939 0.581-0.098 0.42 0.161 0.841 0.581 0.941l6.475 1.519c0.086 0.031 0.864 0.284 1.52-0.177 0.286-0.202 0.619-0.597 0.678-1.353l0.005-0.073c0.002-0.050 0.003-0.102 0.003-0.155 0-0.014 0-0.028-0.002-0.041l0.002-0.072c0.020-1.409 0.167-2.022 3.133-5.244 0.014-0.011 0.030-0.022 0.042-0.034 4.167-3.502 6.194-7.788 6.194-13.1 0-10.758-8.739-17.188-17.187-17.188zM23.438 46.094c0.358 0 0.68-0.245 0.761-0.609 0.097-0.42-0.167-0.839-0.589-0.934l-12.5-2.834c-0.423-0.094-0.839 0.169-0.934 0.589-0.097 0.42 0.167 0.839 0.589 0.934l12.5 2.834c0.059 0.014 0.117 0.020 0.173 0.020zM11.889 46.178c-0.423-0.094-0.837 0.17-0.934 0.591-0.094 0.422 0.17 0.839 0.592 0.933l10.156 2.278c0.059 0.014 0.116 0.020 0.172 0.020 0.358 0 0.681-0.247 0.762-0.611 0.094-0.422-0.17-0.839-0.592-0.933l-10.156-2.278z"></path>
</symbol>
<symbol id="icon-codepen" viewBox="0 0 50 50">
<title>codepen</title>
<path d="M50 17.046l-0.038-0.181-0.035-0.104c-0.021-0.050-0.038-0.104-0.063-0.156-0.006-0.037-0.031-0.071-0.042-0.104l-0.073-0.14-0.062-0.104-0.092-0.125-0.096-0.094-0.125-0.094-0.096-0.062-0.125-0.092-0.092-0.083-0.031-0.042-22.823-15.269c-0.723-0.483-1.658-0.483-2.379 0l-23.133 15.442-0.079 0.083-0.104 0.117-0.077 0.094-0.104 0.125c-0.042 0.035-0.063 0.063-0.063 0.096l-0.104 0.125-0.042 0.125c-0.042 0.021-0.042 0.083-0.063 0.146l-0.021 0.104c-0.040 0.065-0.040 0.127-0.040 0.19v15.619c0 0.092 0.006 0.188 0.021 0.281l0.021 0.096c0.010 0.063 0.021 0.125 0.042 0.179l0.031 0.104c0.021 0.056 0.033 0.11 0.056 0.156l0.046 0.104c0 0.021 0.031 0.083 0.063 0.125l0.063 0.083c0.031 0.021 0.063 0.083 0.094 0.125l0.062 0.083 0.083 0.083c0.021 0.027 0.021 0.063 0.062 0.063l0.125 0.088 0.083 0.062 0.021 0.029 22.854 15.271c0.342 0.25 0.781 0.34 1.188 0.34s0.813-0.125 1.188-0.375l23.246-15.429 0.108-0.121 0.069-0.094 0.083-0.125 0.062-0.104 0.063-0.146 0.033-0.108 0.063-0.16 0.031-0.094 0.062-0.167v-15.625c0-0.104 0-0.198-0.033-0.292l-0.029-0.094 0.092 0.006zM25.021 30.129l-7.604-5.083 7.604-5.087 7.604 5.083-7.604 5.083zM22.867 16.225l-9.319 6.229-7.527-5.033 16.846-11.229v10.038zM9.679 25.044l-5.379 3.604v-7.19l5.379 3.596zM13.548 27.648l9.319 6.229v10.042l-16.846-11.231 7.538-5.035v-0.008zM27.167 33.877l9.321-6.208 7.527 5.042-16.848 11.229v-10.042zM40.354 25.065l5.381-3.583v7.2l-5.381-3.604zM36.49 22.481l-9.319-6.231v-10.063l16.844 11.229-7.525 5.038z"></path>
</symbol>
<symbol id="icon-facebook-c" viewBox="0 0 50 50">
<title>facebook-c</title>
<path fill="#3b5998" style="fill: var(--color1, #3b5998)" d="M47.242 0h-44.483c-1.523 0-2.758 1.235-2.758 2.758v44.483c0 1.525 1.235 2.758 2.758 2.758h23.946v-19.362h-6.519v-7.544h6.519v-5.573c0-6.456 3.946-9.969 9.706-9.969 2.76 0 5.133 0.202 5.825 0.294v6.75h-4.002c-3.125 0-3.733 1.502-3.733 3.69v4.815h7.467l-0.969 7.563h-6.498v19.337h12.74c1.527 0 2.76-1.233 2.76-2.758v-44.483c0-1.523-1.233-2.758-2.758-2.758z"></path>
</symbol>
<symbol id="icon-linkedin-c" viewBox="0 0 50 50">
<title>linkedin-c</title>
<path fill="#0077b5" style="fill: var(--color2, #0077b5)" d="M42.598 42.608h-7.404v-11.602c0-2.767-0.056-6.327-3.858-6.327-3.86 0-4.45 3.010-4.45 6.123v11.806h-7.404v-23.858h7.113v3.252h0.096c0.994-1.875 3.41-3.854 7.021-3.854 7.502 0 8.89 4.938 8.89 11.365v13.096zM11.119 15.485c-2.383 0-4.298-1.929-4.298-4.302 0-2.371 1.917-4.298 4.298-4.298 2.375 0 4.3 1.927 4.3 4.298 0 2.373-1.927 4.302-4.3 4.302zM14.831 42.608h-7.425v-23.858h7.425v23.858zM46.302 0h-42.612c-2.040 0-3.69 1.613-3.69 3.602v42.796c0 1.992 1.65 3.602 3.69 3.602h42.606c2.038 0 3.704-1.61 3.704-3.602v-42.796c0-1.99-1.667-3.602-3.704-3.602h0.006z"></path>
</symbol>
<symbol id="icon-github" viewBox="0 0 50 50">
<title>github</title>
<path d="M25 0.619c-13.813 0-25 11.194-25 25 0 11.048 7.162 20.417 17.094 23.719 1.25 0.235 1.708-0.538 1.708-1.202 0-0.594-0.021-2.167-0.031-4.25-6.954 1.508-8.421-3.354-8.421-3.354-1.137-2.885-2.781-3.656-2.781-3.656-2.265-1.55 0.175-1.519 0.175-1.519 2.51 0.175 3.829 2.575 3.829 2.575 2.229 3.823 5.852 2.719 7.281 2.079 0.225-1.617 0.869-2.719 1.583-3.344-5.552-0.625-11.388-2.775-11.388-12.354 0-2.729 0.969-4.958 2.573-6.708-0.281-0.631-1.125-3.173 0.219-6.617 0 0 2.094-0.671 6.875 2.563 2-0.556 4.125-0.831 6.25-0.844 2.125 0.012 4.25 0.287 6.25 0.844 4.75-3.233 6.844-2.563 6.844-2.563 1.344 3.444 0.5 5.985 0.25 6.617 1.594 1.75 2.563 3.979 2.563 6.708 0 9.604-5.844 11.719-11.406 12.333 0.875 0.75 1.688 2.283 1.688 4.625 0 3.346-0.031 6.033-0.031 6.846 0 0.656 0.438 1.438 1.719 1.188 10.002-3.279 17.158-12.654 17.158-23.685 0-13.806-11.194-25-25-25z"></path>
</symbol>
<symbol id="icon-facebook2" viewBox="0 0 50 50">
<title>facebook2</title>
<path d="M42.5 2.5h-35c-2.75 0-5 2.25-5 5v35c0 2.752 2.25 5 5 5h17.5v-17.5h-5v-6.188h5v-5.125c0-5.41 3.030-9.21 9.415-9.21l4.508 0.005v6.513h-2.992c-2.485 0-3.43 1.865-3.43 3.595v4.225h6.42l-1.42 6.185h-5v17.5h10c2.75 0 5-2.248 5-5v-35c0-2.75-2.25-5-5-5z"></path>
</symbol>
<symbol id="icon-linkedin2" viewBox="0 0 50 50">
<title>linkedin2</title>
<path d="M45.313 0h-40.625c-2.578 0-4.688 2.109-4.688 4.688v40.625c0 2.578 2.109 4.688 4.688 4.688h40.625c2.578 0 4.688-2.109 4.688-4.688v-40.625c0-2.578-2.109-4.688-4.688-4.688zM18.75 40.625h-6.25v-21.875h6.25v21.875zM15.625 15.625c-1.729 0-3.125-1.396-3.125-3.125s1.396-3.125 3.125-3.125c1.729 0 3.125 1.396 3.125 3.125s-1.396 3.125-3.125 3.125zM40.625 40.625h-6.25v-12.5c0-1.729-1.396-3.125-3.125-3.125s-3.125 1.396-3.125 3.125v12.5h-6.25v-21.875h6.25v3.877c1.289-1.768 3.262-3.877 5.469-3.877 3.887 0 7.031 3.496 7.031 7.813v14.063z"></path>
</symbol>
<symbol id="icon-codepen2" viewBox="0 0 50 50">
<title>codepen2</title>
<path d="M46.179 17.971l-21.875-14.583c-0.525-0.35-1.209-0.35-1.733 0l-21.875 14.583c-0.435 0.29-0.696 0.778-0.696 1.3v14.583c0 0.522 0.261 1.010 0.696 1.3l21.875 14.583c0.262 0.175 0.565 0.262 0.867 0.262s0.604-0.087 0.867-0.262l21.875-14.583c0.435-0.29 0.696-0.778 0.696-1.3v-14.583c0-0.522-0.261-1.010-0.696-1.3zM23.438 31.976l-8.121-5.414 8.121-5.414 8.121 5.414-8.121 5.414zM25 18.435v-10.828l17.496 11.664-8.121 5.414-9.375-6.25zM21.875 18.435l-9.375 6.25-8.121-5.414 17.496-11.664v10.828zM9.683 26.563l-6.558 4.372v-8.744l6.558 4.372zM12.5 28.44l9.375 6.25v10.828l-17.496-11.664 8.121-5.414zM25 34.69l9.375-6.25 8.121 5.414-17.496 11.664v-10.828zM37.192 26.563l6.558-4.372v8.744l-6.558-4.372z"></path>
</symbol>
<symbol id="icon-squared-cross" viewBox="0 0 20 20">
<title>squared-cross</title>
<path d="M16 2h-12c-1.1 0-2 0.9-2 2v12c0 1.1 0.9 2 2 2h12c1.1 0 2-0.9 2-2v-12c0-1.1-0.9-2-2-2zM13.061 14.789l-3.061-3.060-3.061 3.060-1.729-1.728 3.061-3.061-3.060-3.061 1.729-1.729 3.060 3.061 3.059-3.061 1.729 1.729-3.059 3.061 3.060 3.061-1.728 1.728z"></path>
</symbol>
<symbol id="icon-cancel" viewBox="0 0 32 32">
<title>cancel</title>
<path d="M19.587 16.001l6.096 6.096c0.396 0.396 0.396 1.039 0 1.435l-2.151 2.151c-0.396 0.396-1.038 0.396-1.435 0l-6.097-6.096-6.097 6.096c-0.396 0.396-1.038 0.396-1.434 0l-2.152-2.151c-0.396-0.396-0.396-1.038 0-1.435l6.097-6.096-6.097-6.097c-0.396-0.396-0.396-1.039 0-1.435l2.153-2.151c0.396-0.396 1.038-0.396 1.434 0l6.096 6.097 6.097-6.097c0.396-0.396 1.038-0.396 1.435 0l2.151 2.152c0.396 0.396 0.396 1.038 0 1.435l-6.096 6.096z"></path>
</symbol>
</defs>
</svg>
